<svg width="88" height="88" viewBox="0 0 88 88" fill="none" xmlns="http://www.w3.org/2000/svg">
<path d="M44 44C48.554 44 52.25 39.0775 52.25 33C52.25 26.9225 48.554 22 44 22C39.446 22 35.75 26.9225 35.75 33C35.75 39.0775 39.446 44 44 44Z" fill="#C70808E6"/>
<path fill-rule="evenodd" clip-rule="evenodd" d="M65.7415 48.455C64.669 29.821 60.4175 18.1665 55.968 10.9505C53.3885 6.7815 50.765 4.1305 48.7135 2.497C47.9124 1.85232 47.0608 1.27296 46.167 0.7645C45.9082 0.617258 45.644 0.479663 45.375 0.352C44.9514 0.126483 44.4799 0.00577815 44 0C43.4861 0.00714639 42.9826 0.145342 42.537 0.4015C42.2716 0.538942 42.0111 0.6857 41.756 0.8415C40.8691 1.38069 40.0251 1.98749 39.2315 2.6565C37.1965 4.3505 34.5895 7.073 32.0265 11.2915C27.599 18.5625 23.353 30.173 22.2695 48.4495L14.036 58.4925L14.014 58.52C12.0629 60.9583 10.9999 63.9882 11 67.111V85.25C11 85.8272 11.1816 86.3897 11.5191 86.858C11.8566 87.3262 12.3328 87.6764 12.8804 87.8589C13.4279 88.0414 14.019 88.047 14.57 87.8749C15.1209 87.7028 15.6037 87.3617 15.95 86.9L22.1375 78.65C23.0505 77.429 24.4475 76.45 26.2735 75.515C27.4505 74.921 28.5505 74.459 29.711 73.9695L30.8 73.5075C34.65 75.8615 39.325 77 44 77C48.675 77 53.35 75.8615 57.2 73.5075C57.5685 73.6725 57.926 73.8155 58.278 73.964C59.4495 74.459 60.5495 74.921 61.7265 75.515C63.5525 76.45 64.9495 77.429 65.8625 78.65L72.05 86.9C72.3963 87.3617 72.8791 87.7028 73.43 87.8749C73.981 88.047 74.5721 88.0414 75.1196 87.8589C75.6672 87.6764 76.1434 87.3262 76.4809 86.858C76.8184 86.3897 77 85.8272 77 85.25V67.111C77.0001 63.9882 75.9371 60.9583 73.986 58.52L65.7415 48.455ZM66 57.4475V57.75C66 62.513 64.438 66.4675 61.875 69.52C62.678 69.872 63.481 70.235 64.2125 70.6145C66.3575 71.698 68.6125 73.1445 70.2625 75.3445L71.5 77V67.111C71.5001 65.2426 70.866 63.4296 69.7015 61.9685L66 57.4475ZM26.125 69.52C23.562 66.4675 22 62.513 22 57.75V57.453L18.2985 61.963C17.1328 63.4255 16.4987 65.2407 16.5 67.111V77L17.7375 75.35C19.3875 73.15 21.6425 71.698 23.7875 70.6145C24.519 70.2405 25.322 69.872 26.125 69.52ZM44.0495 5.9015C43.6011 6.20645 43.1679 6.53317 42.7515 6.8805C41.1785 8.2005 38.973 10.4555 36.7235 14.146C32.2355 21.527 27.5 34.749 27.5 57.75C27.5 62.469 29.557 65.89 32.6865 68.1615C35.6565 70.323 39.7045 71.5 44 71.5C48.2955 71.5 52.338 70.323 55.3135 68.1615C58.443 65.89 60.5 62.469 60.5 57.75C60.5 34.3035 55.759 21.0925 51.282 13.838C49.049 10.2135 46.8545 8.041 45.2925 6.798C44.8934 6.47859 44.4785 6.17938 44.0495 5.9015Z" fill="#C70808E6"/>
<path d="M52.1345 78.9856C49.4945 79.4971 46.7445 79.7501 44 79.7501C41.25 79.7501 38.5055 79.4971 35.8655 78.9856L41.8 86.9001C42.0561 87.2416 42.3883 87.5188 42.7701 87.7098C43.152 87.9007 43.5731 88.0001 44 88.0001C44.4269 88.0001 44.848 87.9007 45.2298 87.7098C45.6117 87.5188 45.9438 87.2416 46.2 86.9001L52.1345 78.9856Z" fill="#C70808E6"/>
</svg>
