<svg width="69" height="69" viewBox="0 0 69 69" fill="none" xmlns="http://www.w3.org/2000/svg">
<path d="M58.2188 0H6.46875C2.91094 0 0 2.91094 0 6.46875V62.5312C0 66.0891 2.91094 69 6.46875 69H58.2188C61.7766 69 64.6875 66.0891 64.6875 62.5312V6.46875C64.6875 2.91094 61.7766 0 58.2188 0ZM56.0625 60.375H8.625V8.625H56.0625V60.375ZM17.25 38.8125H47.4375V43.125H17.25V38.8125ZM17.25 47.4375H47.4375V51.75H17.25V47.4375ZM21.5625 19.4062C21.5628 18.5565 21.7304 17.7151 22.0559 16.9301C22.3813 16.1451 22.8582 15.4319 23.4593 14.8313C24.0604 14.2306 24.7739 13.7542 25.5591 13.4292C26.3443 13.1043 27.1858 12.9372 28.0356 12.9375C28.8853 12.9378 29.7267 13.1054 30.5117 13.4309C31.2967 13.7563 32.0099 14.2332 32.6106 14.8343C33.2112 15.4354 33.6876 16.1489 34.0126 16.9341C34.3375 17.7193 34.5046 18.5608 34.5043 19.4106C34.5037 21.1268 33.8214 22.7724 32.6075 23.9856C31.3936 25.1987 29.7474 25.8799 28.0312 25.8793C26.3151 25.8787 24.6694 25.1964 23.4563 23.9825C22.2431 22.7686 21.5619 21.1224 21.5625 19.4062ZM32.3438 25.875H23.7188C20.1609 25.875 17.25 27.8156 17.25 30.1875V34.5H38.8125V30.1875C38.8125 27.8156 35.9016 25.875 32.3438 25.875Z" fill="#C70808E6"/>
</svg>
