<svg width="320" height="290" viewBox="0 0 320 290" fill="none" xmlns="http://www.w3.org/2000/svg">
<g filter="url(#filter0_d_13_2116)">
<path d="M16 26C16 20.4772 20.4772 16 26 16H286C291.523 16 296 20.4772 296 26V256C296 261.523 291.523 266 286 266H26C20.4771 266 16 261.523 16 256V26Z" fill="white"/>
</g>
<path d="M103 174.79H106.348V185.32H108.868V174.79H112.216V172.756H103V174.79Z" fill="#FF1616"/>
<path d="M118.339 177.256C119.635 177.256 120.679 178.084 120.715 179.398H115.981C116.179 178.03 117.133 177.256 118.339 177.256ZM123.073 182.188H120.355C120.031 182.854 119.437 183.394 118.357 183.394C117.097 183.394 116.089 182.566 115.963 181.09H123.253C123.307 180.766 123.325 180.442 123.325 180.118C123.325 177.148 121.291 175.186 118.411 175.186C115.459 175.186 113.407 177.184 113.407 180.334C113.407 183.466 115.513 185.482 118.411 185.482C120.877 185.482 122.533 184.024 123.073 182.188Z" fill="#FF1616"/>
<path d="M124.516 180.298C124.516 183.412 126.532 185.482 129.052 185.482C130.636 185.482 131.77 184.726 132.364 183.862V185.32H134.902V175.348H132.364V176.77C131.77 175.942 130.672 175.186 129.07 175.186C126.532 175.186 124.516 177.184 124.516 180.298ZM132.364 180.334C132.364 182.224 131.104 183.268 129.718 183.268C128.368 183.268 127.09 182.188 127.09 180.298C127.09 178.408 128.368 177.4 129.718 177.4C131.104 177.4 132.364 178.444 132.364 180.334Z" fill="#FF1616"/>
<path d="M151.313 185.32H153.833V179.47C153.833 176.716 152.141 175.204 149.747 175.204C148.289 175.204 146.975 175.978 146.327 177.112C145.643 175.87 144.365 175.204 142.817 175.204C141.575 175.204 140.513 175.726 139.883 176.554V175.348H137.363V185.32H139.883V179.812C139.883 178.228 140.765 177.4 142.133 177.4C143.465 177.4 144.347 178.228 144.347 179.812V185.32H146.867V179.812C146.867 178.228 147.749 177.4 149.099 177.4C150.431 177.4 151.313 178.228 151.313 179.812V185.32Z" fill="#FF1616"/>
<path d="M163.052 185.338L166.004 185.32L168.47 176.374L170.828 185.32H173.798L177.308 172.756H174.59L172.358 182.458L169.946 172.756H167.138L164.582 182.512L162.368 172.756H159.668L163.052 185.338Z" fill="#FF1616"/>
<path d="M188.583 180.334C188.583 177.184 186.333 175.186 183.453 175.186C180.573 175.186 178.323 177.184 178.323 180.334C178.323 183.466 180.501 185.482 183.381 185.482C186.279 185.482 188.583 183.466 188.583 180.334ZM180.879 180.334C180.879 178.336 182.085 177.382 183.417 177.382C184.749 177.382 185.991 178.336 185.991 180.334C185.991 182.314 184.713 183.286 183.381 183.286C182.031 183.286 180.879 182.314 180.879 180.334Z" fill="#FF1616"/>
<path d="M192.952 180.352C192.952 178.426 193.852 177.85 195.346 177.85H196.012V175.204C194.626 175.204 193.582 175.87 192.952 176.896V175.348H190.432V185.32H192.952V180.352Z" fill="#FF1616"/>
<path d="M197.709 185.32H200.229V181.072L203.613 185.32H206.889L202.461 180.352L206.853 175.348H203.577L200.229 179.578V172H197.709V185.32Z" fill="#FF1616"/>
<defs>
<filter id="filter0_d_13_2116" x="0" y="0" width="320" height="290" filterUnits="userSpaceOnUse" color-interpolation-filters="sRGB">
<feFlood flood-opacity="0" result="BackgroundImageFix"/>
<feColorMatrix in="SourceAlpha" type="matrix" values="0 0 0 0 0 0 0 0 0 0 0 0 0 0 0 0 0 0 127 0" result="hardAlpha"/>
<feOffset dx="4" dy="4"/>
<feGaussianBlur stdDeviation="10"/>
<feComposite in2="hardAlpha" operator="out"/>
<feColorMatrix type="matrix" values="0 0 0 0 0 0 0 0 0 0 0 0 0 0 0 0 0 0 0.1 0"/>
<feBlend mode="normal" in2="BackgroundImageFix" result="effect1_dropShadow_13_2116"/>
<feBlend mode="normal" in="SourceGraphic" in2="effect1_dropShadow_13_2116" result="shape"/>
</filter>
</defs>
</svg>
