<svg width="88" height="71" viewBox="0 0 88 71" fill="none" xmlns="http://www.w3.org/2000/svg">
<g clip-path="url(#clip0_13_2081)">
<path d="M9.10931 27.3077L35.8788 55.6821L22.9882 27.3077H9.10931ZM43.9999 60.2476L58.996 27.3077H29.0038L43.9999 60.2476ZM23.1171 21.8462L31.8827 5.46154H20.6249L8.24994 21.8462H23.1171ZM52.121 55.6821L78.8906 27.3077H65.0117L52.121 55.6821ZM29.3476 21.8462H58.6523L49.8867 5.46154H38.1132L29.3476 21.8462ZM64.8827 21.8462H79.7499L67.3749 5.46154H56.1171L64.8827 21.8462ZM70.9413 1.10938L87.4413 22.9555C87.8424 23.4675 88.0286 24.0578 87.9999 24.7263C87.9713 25.3947 87.7278 25.9708 87.2695 26.4543L46.0195 70.1466C45.5038 70.7155 44.8307 71 43.9999 71C43.1692 71 42.496 70.7155 41.9804 70.1466L0.730404 26.4543C0.27207 25.9708 0.0285807 25.3947 -6.51041e-05 24.7263C-0.0287109 24.0578 0.157487 23.4675 0.558529 22.9555L17.0585 1.10938C17.5742 0.369792 18.3046 0 19.2499 0H68.7499C69.6952 0 70.4257 0.369792 70.9413 1.10938Z" fill="#C70808E6"/>
</g>
<defs>
<clipPath id="clip0_13_2081">
<rect width="88" height="71" fill="white"/>
</clipPath>
</defs>
</svg>
