<svg width="104" height="104" viewBox="0 0 104 104" fill="none" xmlns="http://www.w3.org/2000/svg">
<path d="M45.8685 6.56422C45.0651 6.56138 44.2593 6.56219 43.4513 6.56565C39.562 6.58372 35.6107 6.6859 31.6255 6.83377L32.7785 11.8902C36.9285 11.4209 41.4783 11.0716 46.0277 10.8969C48.4924 10.8022 50.9421 10.7523 53.3183 10.7648C60.4469 10.802 66.9149 11.4006 71.1466 13.0403L72.956 13.7418L72.1482 15.506C66.2452 28.4014 64.88 40.8422 65.805 53.0488C66.2616 38.5623 72.2832 25.6777 80.1883 9.15996C69.4316 7.37246 57.9189 6.60424 45.8685 6.56402V6.56422ZM51.5629 14.4434C49.7876 14.4449 47.9777 14.4808 46.1681 14.5503C37.7034 14.8753 29.2683 15.8686 23.7707 17.0073C29.9118 28.3983 34.8796 39.8156 38.0876 50.9458C38.4866 50.9325 38.886 50.9356 39.2848 50.955C40.1009 50.995 40.9081 51.1057 41.6969 51.2779C38.4317 40.8379 34.7124 31.2092 30.0891 21.5951L29.0444 19.4228L31.4182 19.0028C37.3811 17.9469 43.5358 17.5383 49.3935 17.5364C49.7839 17.5364 50.1735 17.5378 50.5611 17.5413C54.2831 17.5738 57.8703 17.7664 61.1938 18.0562L63.4392 18.2522L62.7843 20.4088C58.9859 32.9138 58.2418 46.3434 60.3895 59.1208C60.4252 59.1539 60.4614 59.1868 60.4963 59.2203C61.2708 58.9489 61.9954 58.6723 62.6708 58.3765C60.9942 44.6871 61.737 30.5641 67.9985 15.8826C64.5044 14.9923 59.1778 14.5269 53.325 14.4538C52.7376 14.4465 52.1503 14.4432 51.5629 14.4436V14.4434ZM81.0048 15.9435C74.7169 29.2596 70.2508 39.9306 69.5187 51.4504C73.5889 37.8812 81.4562 25.7175 90.4211 17.9027C87.3092 17.1264 84.168 16.4729 81.0048 15.9435ZM21.0909 19.7072C17.2802 20.4929 13.5578 21.4903 9.95718 22.8683C11.7093 24.3876 14.8769 27.2141 18.72 30.9707C20.4888 29.1501 22.2928 27.3514 24.1743 25.7159C23.1777 23.6971 22.1498 21.694 21.0909 19.7072ZM49.9393 21.227C47.1727 21.2136 44.3408 21.2928 41.4986 21.4896C41.2004 24.2688 39.5568 26.8688 37.5936 29.4257C40.728 36.8335 43.435 44.3926 45.8721 52.4183C49.6045 53.5192 53.2972 54.8206 56.2884 56.38C55.1773 47.7557 55.3292 38.9188 56.7718 30.2768C54.1545 27.5732 52.7912 24.5711 52.6819 21.2703C51.7679 21.2459 50.8536 21.2315 49.9393 21.227ZM86.9117 26.7083C81.8884 32.6599 77.4621 40.114 74.4459 48.2217C79.9839 40.3441 86.7939 34.1996 94.0428 29.8592C91.6812 28.7744 89.3039 27.724 86.9117 26.7083ZM25.8239 29.1375C22.8595 31.8163 19.9304 35.0316 16.8801 38.0947C23.4388 41.9929 29.0251 46.6093 33.5822 51.8381C33.8652 51.7313 34.151 51.6352 34.4384 51.5477C32.306 44.2157 29.3837 36.7128 25.8239 29.1375ZM73.2306 54.4778C69.9 58.4972 66.7643 60.6192 62.4467 62.3123C62.9324 64.1851 62.2111 66.3352 60.5507 67.9797C59.5741 68.9468 58.3468 70.0491 56.5524 70.7655C56.8113 70.9188 57.0756 71.0629 57.3446 71.1976C59.8561 72.4509 64.2929 72.0466 68.4149 70.172C72.5242 68.3033 76.195 65.0752 77.5556 61.8051C78.2375 59.9668 77.7506 59.0081 76.5568 57.602C75.7069 56.6016 74.4656 55.5931 73.2306 54.478V54.4778ZM38.6833 54.5968C36.5068 54.5769 34.2964 55.2049 32.4697 56.5793C29.8718 58.534 27.8689 62.0198 27.8511 67.9409V67.9815L27.849 68.0221C27.2559 80.4901 28.174 86.2424 29.993 89.3635C31.5985 92.1182 34.2688 93.4369 38.1749 95.8622C38.361 95.3735 38.5547 94.7725 38.7365 94.0142C39.1991 92.0847 39.5817 89.4348 39.8243 86.5037C40.3095 80.6419 40.2387 73.6032 39.4272 68.5383L38.9984 65.8591L41.6422 66.4674C48.064 67.9447 51.7376 68.1192 53.8704 67.743C56.0036 67.3664 56.7265 66.6212 57.9778 65.3819C59.1539 64.2176 59.1319 63.7985 58.8829 63.1433C58.6337 62.4878 57.6339 61.4076 55.9376 60.3741C52.5448 58.3071 46.7797 56.3906 41.391 54.9614C40.5072 54.7275 39.5975 54.605 38.6833 54.5968ZM77.0943 68.6969C75.0604 70.6782 72.5575 72.3046 69.9286 73.5002C65.6665 75.4384 60.9783 76.3251 57.0889 75.0344C55.7158 75.5455 54.9181 76.1327 54.5157 76.6188C53.9636 77.2859 53.9291 77.7766 54.1161 78.4794C54.303 79.1822 54.8606 80.0167 55.55 80.6171C56.2392 81.2175 57.0584 81.5295 57.3698 81.5442C66.8748 81.9955 70.9885 79.2677 76.1136 76.1039C77.6082 75.1813 78.1802 73.3123 78.037 71.446C77.9653 70.5128 77.6937 69.636 77.3803 69.0837C77.3024 68.9427 77.2062 68.8127 77.0943 68.6969ZM43.3375 70.5445C43.8914 75.6365 43.9006 81.5771 43.4679 86.8053C43.2146 89.8668 42.823 92.651 42.292 94.8663C42.0611 95.8303 41.807 96.6851 41.4999 97.4377L71.2977 96.1245C70.9613 94.8755 70.6184 93.6212 70.2758 92.3663C69.1309 92.7473 67.9608 93.0476 66.7739 93.2649L66.7828 93.4132L65.0936 93.5184C64.0534 93.6431 62.9706 93.712 61.8471 93.7199L44.813 94.7782L45.3194 92.4205C46.9337 84.9036 47.0825 78.2852 46.0868 71.0448C45.1672 70.8959 44.2505 70.7291 43.3373 70.5445H43.3375ZM49.8318 71.496C50.6338 77.9824 50.5373 84.173 49.3431 90.8335L53.2561 90.5905C52.6425 89.685 52.2208 88.6634 52.0171 87.5888C51.7538 86.1913 51.9003 84.6357 52.8145 83.3495C52.8549 83.2925 52.8986 83.2378 52.9419 83.1828C51.8763 82.1986 50.9862 80.9358 50.5828 79.4201C50.1534 77.8065 50.4215 75.8309 51.6994 74.2871C52.1217 73.7773 52.6321 73.317 53.2315 72.9026C52.7014 72.4801 52.2366 72.0322 51.8353 71.5656C51.2129 71.5699 50.5464 71.5468 49.8318 71.496ZM76.7796 79.9836C72.0151 82.8787 66.662 85.6459 57.1963 85.1965C56.8874 85.1814 56.5804 85.1397 56.2786 85.0716C56.0282 85.184 55.8945 85.3268 55.7948 85.4671C55.5992 85.7423 55.4836 86.239 55.6101 86.9119C55.8636 88.258 57.1387 89.7331 58.3259 89.8713C66.7322 90.8489 72.5404 88.0988 76.0671 84.8994C77.6921 83.4251 77.7059 82.4822 77.4666 81.4562C77.3467 80.9437 77.0827 80.4469 76.7796 79.9836ZM75.4221 89.9493C74.8578 90.303 74.2786 90.6324 73.686 90.9365C74.0212 92.1656 74.3572 93.3947 74.6889 94.624L78.7351 93.8984C77.691 93.0073 76.8741 92.0796 76.2184 91.1571C75.9255 90.7449 75.6673 90.3443 75.4221 89.9493Z" fill="#C70808E6"/>
</svg>
