<svg width="122" height="122" viewBox="0 0 122 122" fill="none" xmlns="http://www.w3.org/2000/svg">
<g filter="url(#filter0_d_13_1501)">
<circle cx="59" cy="59" r="50" fill="#C70808E6"/>
<circle cx="59" cy="59" r="52.5" stroke="white" stroke-width="5"/>
</g>
<g filter="url(#filter1_d_13_1501)">
<path d="M96.6656 61.8643C96.6656 62.1183 96.6456 62.3687 96.6039 62.6172C96.564 62.8676 96.5023 63.1125 96.4225 63.3519C96.3427 63.5914 96.2447 63.8218 96.1268 64.0468C96.0089 64.2699 95.8746 64.4822 95.7222 64.6853C95.5699 64.8867 95.403 65.0754 95.2215 65.2495C95.0383 65.4237 94.8424 65.5833 94.6356 65.7267C94.4269 65.87 94.2092 65.9952 93.9807 66.1022C93.7521 66.2092 93.5162 66.2981 93.2731 66.3689C93.4092 63.5025 93.2096 59.9939 92.1302 59.1395C88.2389 57.3253 84.2205 55.8631 80.0752 54.7547C74.5819 53.131 66.8464 51.1917 61.1754 51.1917C59.851 51.1627 58.5485 51.3132 57.2659 51.638C53.5886 52.6775 50.08 54.1252 46.742 55.981C45.6916 56.7212 44.5487 57.2691 43.3151 57.6265L42.7509 58.0455C30.7013 58.7005 24.2774 62.5084 23.6878 64.0558C23.3122 66.0206 23.3122 67.9853 23.6878 69.9518C23.4973 69.9065 23.314 69.8412 23.1363 69.7577C22.9603 69.6724 22.7934 69.5708 22.6392 69.4511C22.485 69.3332 22.3435 69.1971 22.2165 69.0484C22.0895 68.8996 21.9806 68.7382 21.8881 68.5658C21.7956 68.3935 21.723 68.2139 21.6686 68.0252C21.6142 67.8365 21.5797 67.6442 21.567 67.4501C21.5525 67.2542 21.5598 67.0601 21.587 66.8659C21.616 66.6718 21.6632 66.4832 21.7303 66.2999C21.5053 65.9462 21.3312 65.567 21.2078 65.1661C21.0844 64.7652 21.0155 64.3552 21.0028 63.9361C20.9883 63.517 21.03 63.1034 21.128 62.6952C21.2259 62.287 21.3747 61.8988 21.5779 61.5305C21.7793 61.1623 22.026 60.8285 22.3181 60.5255C22.6101 60.2243 22.9349 59.9667 23.2959 59.7527C23.6569 59.5404 24.0397 59.3771 24.4443 59.2665C24.8488 59.1558 25.2606 59.0996 25.6797 59.0996C25.6797 58.8238 25.7196 58.5553 25.8012 58.2905C25.8811 58.0274 25.999 57.7807 26.1532 57.5521C26.3074 57.3235 26.4906 57.1221 26.7065 56.9498C26.9206 56.7756 27.1546 56.6378 27.4104 56.5344C27.6662 56.431 27.9311 56.3675 28.2068 56.3439C28.4807 56.3203 28.7529 56.3384 29.0214 56.3965C29.2917 56.4545 29.5475 56.5507 29.7869 56.6849C30.0282 56.8192 30.2441 56.9861 30.4346 57.1856C30.6523 57.0314 30.8827 56.8972 31.124 56.7829C31.3652 56.6686 31.6156 56.5761 31.8732 56.5053C32.1308 56.4328 32.392 56.3838 32.6569 56.3584C32.9236 56.3312 33.1885 56.3275 33.4551 56.3457C33.7218 56.3656 33.9849 56.4074 34.2443 56.4709C34.5037 56.5362 34.7559 56.6214 35.0008 56.7285C35.2439 56.8355 35.4779 56.9643 35.7011 57.1113C35.9242 57.2582 36.1328 57.4233 36.3269 57.6065C36.4848 57.3961 36.6589 57.2002 36.8512 57.0187C37.0417 56.8373 37.2485 56.674 37.4662 56.5271C37.6857 56.3802 37.9161 56.2532 38.1556 56.1443C38.3969 56.0373 38.6436 55.9502 38.8994 55.8831C39.1552 55.8178 39.4128 55.7742 39.6759 55.7525C39.9389 55.7289 40.202 55.7289 40.4632 55.7525C40.7263 55.7742 40.9857 55.8178 41.2397 55.8849C41.4955 55.9502 41.744 56.0373 41.9835 56.1443C41.9907 55.952 42.0107 55.7615 42.0415 55.571C42.0724 55.3824 42.1159 55.1937 42.1703 55.0087C42.2247 54.8254 42.2901 54.644 42.3663 54.468C42.4424 54.2903 42.5295 54.1197 42.6275 53.9528C42.7236 53.7877 42.8325 53.6281 42.9486 53.4757C43.0665 53.3233 43.1917 53.1782 43.3278 53.0403C43.462 52.9042 43.6053 52.7754 43.7559 52.6557C43.9065 52.536 44.0643 52.4271 44.2276 52.3273C44.3927 52.2276 44.5632 52.1369 44.7373 52.0588C44.9133 51.979 45.0929 51.9119 45.2762 51.8538C45.4594 51.7976 45.6462 51.7523 45.8367 51.7178C46.0254 51.6833 46.2159 51.6615 46.4082 51.6507C46.6005 51.6416 46.7928 51.6416 46.9833 51.6561C47.1756 51.6688 47.3661 51.6942 47.5547 51.7305C47.7434 51.7668 47.9303 51.8158 48.1117 51.8756C48.2949 51.9355 48.4727 52.0062 48.6468 52.0879C48.6741 51.9718 48.7085 51.8593 48.7503 51.7486C48.792 51.6361 48.841 51.5291 48.8954 51.4239C48.9516 51.3187 49.0133 51.2189 49.0822 51.1227C49.1494 51.0248 49.2237 50.9323 49.3036 50.8452C49.3852 50.7581 49.4705 50.6765 49.5612 50.6003C49.6519 50.5241 49.7462 50.4533 49.846 50.3898C49.9458 50.3263 50.0492 50.2683 50.1562 50.2175C50.2633 50.1667 50.3739 50.1231 50.4864 50.0869C50.5989 50.0506 50.7132 50.0216 50.8293 49.9998C50.9472 49.978 51.0633 49.9635 51.1812 49.9581C51.3009 49.9508 51.4189 49.9526 51.5368 49.9599C51.6547 49.9689 51.7708 49.9853 51.8869 50.0089C52.003 50.0324 52.1173 50.0633 52.2298 50.1014C52.3423 50.1395 52.4511 50.1848 52.5582 50.2374C52.6634 50.29 52.7668 50.3499 52.8647 50.4152C52.9627 50.4805 53.057 50.5513 53.1478 50.6293C53.3437 50.2356 53.5904 49.8764 53.8861 49.5517C54.1836 49.227 54.5211 48.9512 54.8948 48.7208C55.2703 48.4922 55.6712 48.3181 56.0939 48.202C56.5184 48.0859 56.9502 48.0296 57.3892 48.0351C57.8301 48.0387 58.26 48.1058 58.6809 48.2328C59.1018 48.358 59.4973 48.5412 59.8674 48.7789C60.2375 49.0183 60.5676 49.3032 60.8561 49.6333C61.1463 49.9653 61.384 50.33 61.5709 50.7291C61.97 50.495 62.3945 50.3245 62.8444 50.2175C63.2925 50.1104 63.7478 50.0705 64.2104 50.0977C64.6712 50.1268 65.1193 50.2211 65.5511 50.3808C65.9847 50.5422 66.3856 50.7617 66.7539 51.0411C66.9244 50.5985 67.1548 50.1903 67.4487 49.8184C67.7426 49.4447 68.0855 49.1254 68.4755 48.8569C68.8674 48.5884 69.2883 48.3834 69.7418 48.2437C70.1935 48.104 70.6579 48.0332 71.1314 48.0351C71.6049 48.0351 72.0693 48.1076 72.5211 48.2491C72.9728 48.3906 73.3937 48.5956 73.7837 48.8659C74.1738 49.1344 74.5148 49.4574 74.8069 49.8311C75.099 50.203 75.3294 50.613 75.4981 51.0556C75.5997 51.0484 75.7013 51.0447 75.8029 51.0447C76.2746 51.0447 76.7372 51.1155 77.1889 51.2552C77.6388 51.3949 78.0597 51.5999 78.4497 51.8665C78.8398 52.1332 79.1808 52.4525 79.4747 52.8244C79.7668 53.1945 79.999 53.6009 80.1695 54.0417C80.3945 53.8875 80.6376 53.7696 80.8988 53.688C81.1582 53.6063 81.4249 53.5646 81.697 53.5628C81.971 53.5591 82.2377 53.5972 82.5007 53.6734C82.762 53.7514 83.0069 53.8639 83.2354 54.0145C83.3624 53.7895 83.5058 53.5773 83.6672 53.3777C83.8287 53.1782 84.0046 52.9931 84.1969 52.8226C84.3892 52.6521 84.5942 52.4979 84.8101 52.36C85.0278 52.2239 85.2546 52.1042 85.4922 52.0044C85.7281 51.9065 85.9712 51.8266 86.2215 51.7668C86.4719 51.7069 86.7241 51.6688 86.9799 51.6507C87.2356 51.6325 87.4933 51.6361 87.7472 51.6597C88.003 51.6833 88.2552 51.7287 88.5037 51.794C88.7523 51.8611 88.9936 51.9464 89.2276 52.0516C89.4616 52.1568 89.6848 52.282 89.8988 52.4235C90.1129 52.5668 90.3143 52.7246 90.5011 52.9006C90.688 53.0766 90.8603 53.2653 91.0163 53.4703C91.1742 53.6734 91.312 53.8893 91.4336 54.1161C91.5533 54.3429 91.6567 54.5769 91.7384 54.8218C91.82 55.0649 91.8817 55.3134 91.9234 55.5674C91.9651 55.8214 91.9851 56.0754 91.9851 56.333C91.9851 56.6178 91.9597 56.9008 91.9071 57.182H91.9851C92.2917 57.182 92.5965 57.2128 92.8976 57.2727C93.1988 57.3326 93.4908 57.4215 93.7757 57.5394C94.0587 57.6573 94.329 57.8006 94.5848 57.9712C94.8406 58.1417 95.0764 58.3358 95.2941 58.5535C95.51 58.7712 95.7041 59.007 95.8746 59.2628C96.047 59.5186 96.1903 59.7889 96.3082 60.072C96.4261 60.3568 96.515 60.6489 96.5749 60.9518C96.6348 61.253 96.6656 61.5577 96.6656 61.8643Z" fill="white"/>
<path d="M46.0581 70.4416C46.0581 70.4416 48.3094 70.6666 49.28 70.8099H45.8404C44.7918 63.3265 39.5453 64.0903 34.7069 64.4531C29.8686 64.8178 31.231 70.9823 31.231 72L27.4721 71.5936C26.3056 71.5338 24.4915 71.3614 24.301 70.8897C24.0216 70.1895 23.4755 65.7158 24.0579 64.1991C24.6402 62.6825 34.5981 56.8663 53.8263 58.6751C52.8194 58.6751 44.946 59.232 37.5406 60.4166C37.6549 60.355 37.7747 60.3241 37.9035 60.3241C37.8019 60.3241 37.7057 60.3042 37.6114 60.2661C37.5189 60.228 37.4372 60.1735 37.3647 60.101C37.2939 60.0302 37.2395 59.9468 37.1996 59.8543C37.1615 59.7617 37.1415 59.6638 37.1415 59.5622C37.1415 59.6638 37.1216 59.7617 37.0835 59.8543C37.0454 59.9468 36.991 60.0302 36.9184 60.101C36.8476 60.1735 36.766 60.228 36.6717 60.2661C36.5791 60.3042 36.4812 60.3241 36.3814 60.3241C36.5773 60.3241 36.746 60.3894 36.8912 60.5219C31.104 61.4797 25.7414 62.8295 24.3572 64.6037C24.33 66.5104 24.4243 68.4116 24.642 70.3074L27.7587 71.2308C28.889 71.365 30.5961 71.6245 30.5961 71.5555C29.6491 63.9996 32.0565 63.7565 38.8142 63.6331C45.4794 63.508 46.0581 70.4416 46.0581 70.4416Z" fill="white"/>
<path d="M91.8816 59.4533C90.4049 58.2868 66.001 49.5807 57.3728 52.0244C48.7447 54.4681 45.5936 57.6864 43.1499 57.8877C44.4706 58.1308 49.1457 56.0482 52.8846 54.7075C58.4251 52.7228 71.8534 53.5755 79.2842 56.6396C86.7149 59.7019 89.8425 60.0756 90.6008 60.0756C91.3573 60.0756 91.7419 61.9387 91.7419 63.1651C91.7419 63.1887 91.7419 63.2141 91.7419 63.2413C90.7823 65.3729 89.4235 67.2088 87.6655 68.749C86.6061 62.2943 82.8018 60.9047 77.3448 60.8539C71.7482 60.7958 71.5922 65.0953 70.7758 67.3104C69.9594 69.5273 60.925 69.7323 58.8858 70.2276C58.8858 70.2276 69.0868 70.6956 70.7758 69.2371C72.4648 67.7785 70.0175 61.8263 77.7131 61.7646C84.8645 61.7065 86.5771 66.6464 86.7839 69.3133C85.7879 69.823 86.4773 70.7101 86.4773 71.902C87.8415 71.902 91.7964 71.3596 92.3787 69.9954C92.9611 68.6311 93.3584 60.6198 91.8816 59.4533Z" fill="white"/>
<path d="M38.3824 51.8103C38.1829 51.8103 37.9887 51.8484 37.8019 51.9264C37.6168 52.0026 37.4518 52.1133 37.3103 52.2548C37.1687 52.3981 37.0581 52.5614 36.9819 52.7482C36.9039 52.9333 36.8658 53.1274 36.8658 53.3288C36.8658 53.5301 36.9039 53.7242 36.9819 53.9111C37.0581 54.0961 37.1687 54.2612 37.3103 54.4027C37.4518 54.5461 37.6168 54.6549 37.8019 54.7329C37.9887 54.8091 38.1829 54.8472 38.3824 54.8472C38.5838 54.8472 38.7779 54.8091 38.9648 54.7329C39.1498 54.6549 39.3131 54.5461 39.4564 54.4027C39.5979 54.2612 39.7086 54.0961 39.7848 53.9111C39.8628 53.7242 39.9009 53.5301 39.9009 53.3288C39.9009 53.1274 39.8628 52.9333 39.7848 52.7482C39.7086 52.5614 39.5979 52.3981 39.4564 52.2548C39.3131 52.1133 39.1498 52.0026 38.9648 51.9264C38.7779 51.8484 38.5838 51.8103 38.3824 51.8103ZM38.9756 54.4481C39.099 54.3465 39.2006 54.2268 39.2822 54.0871C39.3621 53.9474 39.4147 53.8004 39.4401 53.6408C39.4655 53.483 39.4618 53.3251 39.4292 53.1673C39.3965 53.0113 39.3367 52.8643 39.2496 52.7301C39.1625 52.594 39.0555 52.4797 38.9267 52.3836C38.7979 52.2893 38.6564 52.2203 38.5021 52.1768C38.3479 52.1332 38.1901 52.1187 38.0305 52.1332C37.8708 52.1496 37.7184 52.1913 37.5751 52.262C37.7202 52.1441 37.8817 52.0607 38.0613 52.0117C38.2409 51.9627 38.4241 51.9518 38.6074 51.9808C38.7924 52.0099 38.9629 52.077 39.119 52.1786C39.275 52.2802 39.402 52.4108 39.5036 52.5668C39.6033 52.7246 39.6668 52.8952 39.694 53.0802C39.7213 53.2653 39.7104 53.4467 39.6596 53.6263C39.6088 53.8059 39.5235 53.9673 39.4038 54.1107C39.284 54.254 39.1407 54.3665 38.972 54.4481H38.9756Z" fill="white"/>
<path d="M44.6665 45.8944C44.4652 45.8944 44.2729 45.9343 44.086 46.0105C43.901 46.0885 43.7377 46.1973 43.5944 46.3407C43.4529 46.4822 43.344 46.6472 43.266 46.8341C43.1898 47.0191 43.1517 47.2133 43.1517 47.4146C43.1517 47.616 43.1898 47.8101 43.2678 47.9952C43.344 48.182 43.4547 48.3453 43.5962 48.4886C43.7377 48.6301 43.9028 48.7408 44.0878 48.817C44.2747 48.8932 44.467 48.9331 44.6684 48.9331C44.8697 48.9331 45.0638 48.8932 45.2489 48.817C45.4357 48.739 45.599 48.6301 45.7423 48.4868C45.8838 48.3453 45.9927 48.1802 46.0707 47.9952C46.1469 47.8083 46.1868 47.6142 46.1868 47.4128C46.1868 47.2114 46.1469 47.0173 46.0707 46.8323C45.9927 46.6454 45.8838 46.4822 45.7405 46.3388C45.599 46.1973 45.4339 46.0867 45.2489 46.0105C45.062 45.9325 44.8679 45.8944 44.6665 45.8944ZM45.2598 48.5321C45.3831 48.4306 45.4847 48.3108 45.5646 48.1711C45.6444 48.0333 45.697 47.8845 45.7224 47.7267C45.746 47.567 45.7423 47.411 45.7097 47.2532C45.677 47.0972 45.6172 46.9502 45.5319 46.816C45.4448 46.6817 45.3378 46.5656 45.209 46.4713C45.0802 46.3751 44.9387 46.3062 44.7863 46.2626C44.6321 46.2191 44.4742 46.2046 44.3146 46.2191C44.1568 46.2336 44.0044 46.2753 43.8611 46.3461C44.0044 46.2282 44.1658 46.1447 44.3473 46.0957C44.5269 46.0486 44.7083 46.0377 44.8915 46.0667C45.0765 46.0976 45.2453 46.1629 45.4013 46.2645C45.5573 46.3661 45.6861 46.4967 45.7859 46.6527C45.8857 46.8105 45.951 46.981 45.9782 47.1643C46.0054 47.3493 45.9945 47.5307 45.9437 47.7103C45.8929 47.8899 45.8077 48.0514 45.6897 48.1947C45.57 48.338 45.4267 48.4505 45.2598 48.5321Z" fill="white"/>
<path d="M92.9085 54.8454C92.9085 55.0468 92.9466 55.2409 93.0228 55.4259C93.1008 55.6128 93.2097 55.7761 93.353 55.9194C93.4945 56.0627 93.6578 56.1715 93.8446 56.2477C94.0297 56.3257 94.2238 56.3638 94.4251 56.3638C94.6265 56.3638 94.8206 56.3257 95.0057 56.2477C95.1925 56.1715 95.3558 56.0627 95.4973 55.9194C95.6406 55.7761 95.7495 55.6128 95.8275 55.4259C95.9037 55.2409 95.9418 55.0468 95.9418 54.8454C95.9418 54.644 95.9037 54.4499 95.8275 54.2649C95.7495 54.078 95.6406 53.9147 95.4973 53.7714C95.3558 53.6281 95.1925 53.5193 95.0057 53.4431C94.8206 53.3651 94.6265 53.327 94.4251 53.327C94.2238 53.327 94.0297 53.3651 93.8446 53.4431C93.6578 53.5193 93.4945 53.6281 93.353 53.7714C93.2097 53.9147 93.1008 54.078 93.0228 54.2649C92.9466 54.4499 92.9085 54.644 92.9085 54.8454ZM93.1026 54.791C93.1026 54.5388 93.1697 54.3066 93.3058 54.0943C93.4401 53.8803 93.6215 53.7206 93.8482 53.6118C94.075 53.5029 94.3145 53.4648 94.5648 53.4939C94.8152 53.5247 95.0383 53.619 95.2324 53.7787C95.0891 53.7043 94.9367 53.6571 94.7753 53.6408C94.612 53.6227 94.4542 53.6354 94.2963 53.6771C94.1403 53.7188 93.9952 53.7878 93.8646 53.8839C93.7339 53.9801 93.6233 54.0962 93.5362 54.2322C93.4473 54.3701 93.3874 54.517 93.3548 54.6767C93.3221 54.8363 93.3203 54.996 93.3475 55.1556C93.3729 55.3171 93.4292 55.4658 93.5126 55.6055C93.5943 55.7452 93.6995 55.8668 93.8283 55.9665C93.6051 55.8559 93.4292 55.6962 93.2986 55.484C93.1661 55.2735 93.1026 55.0431 93.1026 54.7946V54.791Z" fill="white"/>
<path d="M80.3963 51.277C80.3963 51.4783 80.4344 51.6724 80.5124 51.8593C80.5886 52.0443 80.6993 52.2094 80.8408 52.3509C80.9823 52.4942 81.1474 52.6031 81.3324 52.6811C81.5193 52.7573 81.7134 52.7972 81.9129 52.7972C82.1143 52.7972 82.3084 52.7573 82.4935 52.6811C82.6803 52.6031 82.8436 52.4942 82.9869 52.3509C83.1284 52.2094 83.2391 52.0443 83.3153 51.8593C83.3933 51.6724 83.4314 51.4783 83.4314 51.277C83.4314 51.0756 83.3933 50.8833 83.3153 50.6964C83.2391 50.5096 83.1284 50.3463 82.9869 50.203C82.8436 50.0615 82.6803 49.9508 82.4935 49.8746C82.3084 49.7966 82.1143 49.7585 81.9129 49.7585C81.7134 49.7585 81.5193 49.7966 81.3324 49.8746C81.1474 49.9508 80.9823 50.0615 80.8408 50.203C80.6993 50.3463 80.5886 50.5096 80.5124 50.6964C80.4344 50.8833 80.3963 51.0756 80.3963 51.277ZM80.5904 51.2243C80.5904 50.9722 80.6575 50.7381 80.7918 50.5259C80.926 50.3118 81.1074 50.1522 81.336 50.0433C81.5628 49.9363 81.8023 49.8964 82.0526 49.9272C82.303 49.9562 82.5243 50.0506 82.7202 50.2102C82.5769 50.1395 82.4245 50.0978 82.2649 50.0832C82.107 50.0687 81.9492 50.0832 81.795 50.1268C81.6408 50.1703 81.4993 50.2393 81.3723 50.3354C81.2435 50.4297 81.1347 50.5458 81.0494 50.6801C80.9623 50.8143 80.9024 50.9613 80.8698 51.1173C80.8371 51.2751 80.8335 51.4312 80.8589 51.5908C80.8843 51.7486 80.9369 51.8974 81.0167 52.0353C81.0966 52.175 81.1982 52.2947 81.3215 52.3963C81.0984 52.2874 80.9188 52.126 80.7863 51.9155C80.6539 51.7033 80.5868 51.4729 80.5868 51.2243H80.5904Z" fill="white"/>
<path d="M62.7864 46.5203C62.7864 46.7216 62.8263 46.9139 62.9025 47.1008C62.9805 47.2876 63.0893 47.4509 63.2308 47.5942C63.3742 47.7357 63.5374 47.8464 63.7243 47.9226C63.9093 48.0006 64.1035 48.0387 64.3048 48.0387C64.5062 48.0387 64.6985 48.0006 64.8853 47.9226C65.0704 47.8464 65.2355 47.7357 65.377 47.5942C65.5203 47.4509 65.6292 47.2876 65.7072 47.1008C65.7834 46.9139 65.8215 46.7216 65.8215 46.5203C65.8215 46.3189 65.7834 46.1248 65.7072 45.9379C65.6292 45.7529 65.5203 45.5878 65.377 45.4463C65.2355 45.303 65.0704 45.1941 64.8853 45.1161C64.6985 45.0399 64.5062 45 64.3048 45C64.1035 45 63.9093 45.0399 63.7243 45.1161C63.5374 45.1941 63.3742 45.303 63.2308 45.4463C63.0893 45.5878 62.9805 45.7529 62.9025 45.9379C62.8263 46.1248 62.7864 46.3189 62.7864 46.5203ZM62.9805 46.4658C62.9805 46.2137 63.0476 45.9796 63.1819 45.7674C63.3179 45.5533 63.4993 45.3937 63.7261 45.2848C63.9547 45.1778 64.1923 45.1379 64.4427 45.1687C64.693 45.1996 64.9162 45.2939 65.1103 45.4535C64.9307 45.3646 64.7402 45.3193 64.5388 45.3193C64.2631 45.3193 64.0127 45.3991 63.786 45.5588C63.561 45.7184 63.4032 45.927 63.3107 46.1883C63.2181 46.4477 63.2073 46.7107 63.2816 46.9774C63.356 47.2423 63.4993 47.4636 63.7134 47.6378C63.4885 47.5289 63.3089 47.3675 63.1782 47.1552C63.0458 46.9411 62.9805 46.7107 62.9805 46.4604V46.4658Z" fill="white"/>
<path d="M52.3096 47.7212C52.2098 47.7212 52.1155 47.7394 52.0248 47.7775C51.9322 47.8156 51.8524 47.8682 51.7835 47.9389C51.7127 48.0079 51.6583 48.0895 51.622 48.1802C51.5839 48.2727 51.564 48.3671 51.564 48.465C51.564 48.5648 51.5839 48.6591 51.622 48.7517C51.6583 48.8424 51.7127 48.9222 51.7835 48.9929C51.8524 49.0619 51.9322 49.1163 52.0248 49.1544C52.1155 49.1925 52.2098 49.2106 52.3096 49.2106C52.4075 49.2106 52.5037 49.1925 52.5944 49.1544C52.6851 49.1163 52.7649 49.0619 52.8357 48.9929C52.9046 48.9222 52.959 48.8424 52.9971 48.7517C53.0352 48.6591 53.0534 48.5648 53.0534 48.465C53.0534 48.3671 53.0352 48.2727 52.9971 48.1802C52.959 48.0895 52.9046 48.0079 52.8357 47.9389C52.7649 47.8682 52.6851 47.8156 52.5944 47.7775C52.5037 47.7394 52.4075 47.7212 52.3096 47.7212ZM52.5998 49.0129C52.7051 48.9276 52.7758 48.8188 52.8121 48.6882C52.8484 48.5594 52.8429 48.4287 52.7976 48.3018C52.7522 48.1748 52.6742 48.0714 52.5636 47.9934C52.4529 47.9153 52.3295 47.8754 52.1935 47.8754C52.0955 47.8754 52.0012 47.899 51.9141 47.9426C52.0302 47.8446 52.1663 47.7974 52.3187 47.7974C52.4674 47.7974 52.6017 47.8428 52.7178 47.9371C52.8357 48.0296 52.9101 48.1476 52.9445 48.2945C52.9772 48.4396 52.9627 48.5793 52.8992 48.7136C52.8339 48.8496 52.7359 48.9494 52.6017 49.0147L52.5998 49.0129Z" fill="white"/>
<path d="M55.9778 49.2106C55.878 49.2106 55.7837 49.2306 55.693 49.2669C55.6005 49.305 55.5206 49.3594 55.4517 49.4301C55.3809 49.4991 55.3265 49.5807 55.2902 49.6714C55.2521 49.7621 55.2322 49.8583 55.2322 49.9562C55.234 50.056 55.2521 50.1504 55.2902 50.2411C55.3283 50.3336 55.3809 50.4134 55.4517 50.4842C55.5206 50.5531 55.6023 50.6075 55.693 50.6456C55.7855 50.6819 55.8798 50.7019 55.9778 50.7019C56.0776 50.7019 56.1719 50.6819 56.2626 50.6438C56.3551 50.6057 56.435 50.5531 56.5039 50.4824C56.5746 50.4116 56.6273 50.3318 56.6654 50.2411C56.7035 50.1485 56.7216 50.0542 56.7216 49.9544C56.7216 49.8565 56.7035 49.7603 56.6654 49.6696C56.6273 49.5789 56.5728 49.4991 56.5039 49.4283C56.4331 49.3594 56.3533 49.305 56.2626 49.2669C56.1701 49.2306 56.0758 49.2106 55.9778 49.2106ZM56.2681 50.5041C56.3733 50.4189 56.444 50.31 56.4803 50.1794C56.5166 50.0488 56.5112 49.92 56.4658 49.793C56.4204 49.6642 56.3424 49.5626 56.2318 49.4828C56.1211 49.4047 55.9977 49.3666 55.8635 49.3666C55.7637 49.3666 55.6694 49.3884 55.5823 49.432C55.7002 49.3358 55.8345 49.2868 55.9869 49.2886C56.1356 49.2868 56.2699 49.334 56.386 49.4265C56.5039 49.519 56.5783 49.6388 56.6127 49.7839C56.6454 49.929 56.6309 50.0705 56.5674 50.2048C56.5021 50.339 56.4041 50.4406 56.2699 50.5059L56.2681 50.5041Z" fill="white"/>
<path d="M86.8964 48.465C86.7984 48.465 86.7023 48.485 86.6116 48.5231C86.5209 48.5612 86.4392 48.6138 86.3703 48.6845C86.2995 48.7535 86.2469 48.8351 86.2088 48.9258C86.1707 49.0165 86.1526 49.1127 86.1526 49.2106C86.1526 49.3104 86.1707 49.4047 86.2088 49.4954C86.2469 49.588 86.2995 49.6678 86.3703 49.7385C86.4392 49.8075 86.5209 49.8619 86.6116 49.9C86.7023 49.9381 86.7984 49.9562 86.8964 49.9562C86.9962 49.9562 87.0905 49.9381 87.1812 49.9C87.2719 49.8619 87.3536 49.8075 87.4225 49.7385C87.4932 49.6678 87.5459 49.588 87.584 49.4954C87.6221 49.4047 87.6402 49.3104 87.6402 49.2106C87.6402 49.1127 87.6221 49.0165 87.584 48.9258C87.5459 48.8351 87.4932 48.7535 87.4225 48.6845C87.3536 48.6138 87.2719 48.5612 87.1812 48.5231C87.0905 48.485 86.9962 48.465 86.8964 48.465ZM87.1867 49.7585C87.2465 49.7095 87.2973 49.6497 87.3372 49.5825C87.3771 49.5136 87.4025 49.441 87.4152 49.363C87.4279 49.285 87.4261 49.2088 87.4098 49.1308C87.3953 49.0546 87.3663 48.982 87.3227 48.9149C87.281 48.8496 87.2284 48.7934 87.1649 48.7462C87.1014 48.699 87.0306 48.6646 86.9563 48.6446C86.8801 48.6228 86.8021 48.6156 86.724 48.6247C86.646 48.6319 86.5717 48.6519 86.5009 48.6882C86.6188 48.5902 86.7531 48.543 86.9055 48.543C87.056 48.5412 87.1903 48.5866 87.3082 48.6791C87.4261 48.7734 87.5005 48.8932 87.535 49.0383C87.5694 49.1852 87.5531 49.3249 87.4878 49.461C87.4225 49.5952 87.3227 49.695 87.1867 49.7603V49.7585Z" fill="white"/>
<path d="M56.4023 56.3675C56.4023 56.5235 56.3733 56.6741 56.3134 56.8192C56.2536 56.9643 56.1683 57.0913 56.0576 57.202C55.947 57.3145 55.8182 57.3997 55.6749 57.4596C55.5297 57.5195 55.3791 57.5485 55.2231 57.5485C55.0653 57.5485 54.9147 57.5195 54.7696 57.4596C54.6263 57.3997 54.4975 57.3145 54.3868 57.202C54.2761 57.0913 54.1909 56.9643 54.131 56.8192C54.0711 56.6741 54.0421 56.5235 54.0421 56.3675C54.0421 56.2096 54.0711 56.0591 54.131 55.9139C54.1909 55.7706 54.2761 55.6418 54.3868 55.5311C54.4975 55.4205 54.6263 55.3352 54.7696 55.2753C54.9147 55.2155 55.0653 55.1846 55.2231 55.1846C55.3791 55.1846 55.5297 55.2155 55.6749 55.2753C55.8182 55.3352 55.947 55.4205 56.0576 55.5311C56.1683 55.6418 56.2536 55.7706 56.3134 55.9139C56.3733 56.0591 56.4023 56.2096 56.4023 56.3675Z" fill="white"/>
<path d="M91.1978 69.2062C91.1978 69.3622 91.1669 69.5128 91.1071 69.6579C91.0472 69.8031 90.9619 69.9319 90.8513 70.0425C90.7406 70.1532 90.6136 70.2385 90.4685 70.2983C90.3234 70.3582 90.1728 70.3872 90.0168 70.3872C89.8589 70.3872 89.7084 70.3582 89.565 70.2983C89.4199 70.2385 89.2929 70.1532 89.1823 70.0425C89.0698 69.9319 88.9845 69.8031 88.9246 69.6579C88.8648 69.5128 88.8358 69.3622 88.8358 69.2062C88.8358 69.0484 88.8648 68.8978 88.9246 68.7545C88.9845 68.6094 89.0698 68.4806 89.1823 68.3699C89.2929 68.2592 89.4199 68.174 89.565 68.1141C89.7084 68.0542 89.8589 68.0234 90.0168 68.0234C90.1728 68.0234 90.3234 68.0542 90.4685 68.1141C90.6136 68.174 90.7406 68.2592 90.8513 68.3699C90.9619 68.4806 91.0472 68.6094 91.1071 68.7545C91.1669 68.8978 91.1978 69.0484 91.1978 69.2062Z" fill="white"/>
<path d="M51.6982 66.5757C51.5585 66.5757 51.4189 66.5884 51.281 66.6174C51.1431 66.6446 51.0107 66.6845 50.8801 66.739C50.7494 66.7916 50.6279 66.8587 50.51 66.9367C50.3939 67.0147 50.285 67.1036 50.1871 67.2034C50.0873 67.3014 49.9984 67.4102 49.9204 67.5263C49.8424 67.6442 49.7771 67.7676 49.7226 67.8964C49.6682 68.027 49.6283 68.1613 49.6011 68.2991C49.5739 68.437 49.5594 68.5767 49.5594 68.7164C49.5594 68.5767 49.5467 68.437 49.5194 68.2991C49.4904 68.1613 49.4505 68.027 49.3961 67.8964C49.3435 67.7676 49.2782 67.6442 49.1983 67.5263C49.1203 67.4102 49.0333 67.3014 48.9335 67.2034C48.8337 67.1036 48.7267 67.0147 48.6087 66.9367C48.4926 66.8587 48.3693 66.7916 48.2387 66.739C48.1098 66.6845 47.9756 66.6446 47.8377 66.6174C47.6999 66.5884 47.562 66.5757 47.4205 66.5757C47.562 66.5757 47.6999 66.5612 47.8377 66.534C47.9756 66.5068 48.1098 66.4668 48.2387 66.4124C48.3693 66.358 48.4926 66.2927 48.6087 66.2147C48.7267 66.1367 48.8337 66.0478 48.9335 65.948C49.0333 65.8482 49.1203 65.7412 49.1983 65.6233C49.2782 65.5072 49.3435 65.3838 49.3961 65.2532C49.4505 65.1244 49.4904 64.9901 49.5194 64.8523C49.5467 64.7144 49.5594 64.5747 49.5594 64.435C49.5594 64.5747 49.5739 64.7144 49.6011 64.8523C49.6283 64.9901 49.6682 65.1244 49.7226 65.2532C49.7771 65.3838 49.8424 65.5072 49.9204 65.6233C49.9984 65.7412 50.0873 65.8482 50.1852 65.948C50.285 66.0478 50.3939 66.1367 50.51 66.2147C50.6279 66.2927 50.7494 66.358 50.8801 66.4124C51.0107 66.4668 51.1431 66.5068 51.281 66.534C51.4189 66.5612 51.5585 66.5757 51.6982 66.5757Z" fill="white"/>
<path d="M71.3799 55.1865C71.3799 55.3261 71.3672 55.4658 71.34 55.6037C71.311 55.7416 71.2711 55.8758 71.2167 56.0046C71.1641 56.1353 71.0987 56.2586 71.0207 56.3765C70.9409 56.4926 70.8538 56.6015 70.7541 56.6995C70.6543 56.7992 70.5472 56.8881 70.4293 56.9661C70.3132 57.0441 70.1899 57.1113 70.0592 57.1639C69.9304 57.2183 69.7962 57.2582 69.6583 57.2854C69.5204 57.3126 69.3826 57.3272 69.2411 57.3272C69.1014 57.3272 68.9617 57.3126 68.8238 57.2854C68.6859 57.2582 68.5535 57.2183 68.4229 57.1639C68.2941 57.1113 68.1707 57.0441 68.0528 56.9661C67.9367 56.8881 67.8278 56.7992 67.7299 56.6995C67.6301 56.6015 67.5412 56.4926 67.4632 56.3765C67.3852 56.2586 67.3199 56.1353 67.2654 56.0046C67.211 55.8758 67.1711 55.7416 67.1439 55.6037C67.1167 55.4658 67.1022 55.3261 67.1022 55.1865C67.1022 55.0449 67.1167 54.9071 67.1439 54.7692C67.1711 54.6313 67.211 54.4971 67.2654 54.3665C67.3199 54.2377 67.3852 54.1143 67.4632 53.9964C67.5412 53.8803 67.6301 53.7714 67.7299 53.6716C67.8278 53.5737 67.9367 53.4848 68.0528 53.4068C68.1707 53.3288 68.2941 53.2616 68.4229 53.209C68.5535 53.1546 68.6859 53.1147 68.8238 53.0857C68.9617 53.0585 69.1014 53.0458 69.2411 53.0458C69.3826 53.0458 69.5204 53.0585 69.6583 53.0857C69.7962 53.1147 69.9304 53.1546 70.0592 53.209C70.1899 53.2616 70.3132 53.3288 70.4293 53.4068C70.5472 53.4848 70.6543 53.5737 70.7541 53.6716C70.8538 53.7714 70.9409 53.8803 71.0207 53.9964C71.0987 54.1143 71.1641 54.2377 71.2167 54.3665C71.2711 54.4971 71.311 54.6313 71.34 54.7692C71.3672 54.9071 71.3799 55.0449 71.3799 55.1865Z" fill="white"/>
<path d="M95.5844 61.3364C95.4846 61.3364 95.3885 61.3564 95.2959 61.3945C95.2034 61.4326 95.1218 61.487 95.051 61.5578C94.9803 61.6285 94.9258 61.7101 94.8878 61.8027C94.8497 61.8952 94.8297 61.9913 94.8297 62.0911C94.8297 61.9913 94.8116 61.8952 94.7735 61.8027C94.7354 61.7101 94.6791 61.6285 94.6084 61.5578C94.5376 61.487 94.456 61.4326 94.3635 61.3945C94.2709 61.3564 94.1748 61.3364 94.075 61.3364C94.1748 61.3364 94.2709 61.3183 94.3635 61.2802C94.456 61.2421 94.5376 61.1859 94.6084 61.1151C94.6809 61.0443 94.7354 60.9627 94.7735 60.8702C94.8116 60.7777 94.8297 60.6815 94.8297 60.5817C94.8297 60.6815 94.8497 60.7777 94.8878 60.8702C94.9258 60.9627 94.9803 61.0443 95.051 61.1151C95.1218 61.1859 95.2034 61.2421 95.2959 61.2802C95.3885 61.3183 95.4846 61.3364 95.5844 61.3364Z" fill="white"/>
<path d="M73.3792 49.3902C73.2794 49.3902 73.1814 49.4102 73.0889 49.4483C72.9964 49.4864 72.9148 49.5408 72.844 49.6116C72.7733 49.6823 72.7188 49.7658 72.6807 49.8583C72.6426 49.9508 72.6227 50.047 72.6227 50.1467C72.6227 50.047 72.6045 49.9508 72.5664 49.8583C72.5283 49.7658 72.4739 49.6841 72.4032 49.6116C72.3324 49.5408 72.2508 49.4864 72.1583 49.4483C72.0657 49.4102 71.9696 49.3902 71.8698 49.3902C71.9696 49.3902 72.0657 49.3721 72.1583 49.334C72.2508 49.2959 72.3324 49.2415 72.4032 49.1689C72.4739 49.0982 72.5283 49.0165 72.5664 48.9258C72.6045 48.8333 72.6227 48.7372 72.6227 48.6356C72.6227 48.7372 72.6426 48.8333 72.6807 48.9258C72.7188 49.0183 72.7751 49.1 72.8458 49.1707C72.9166 49.2415 72.9982 49.2959 73.0907 49.334C73.1833 49.3721 73.2794 49.3902 73.3792 49.3902Z" fill="white"/>
<path d="M46.4771 53.3288C46.4771 53.4285 46.459 53.5265 46.4209 53.6172C46.3828 53.7097 46.3283 53.7914 46.2576 53.8621C46.1868 53.9329 46.1052 53.9873 46.0127 54.0272C45.9202 54.0653 45.824 54.0834 45.7242 54.0834C45.6245 54.0834 45.5283 54.0653 45.4358 54.0272C45.3433 53.9873 45.2616 53.9329 45.1909 53.8621C45.1201 53.7914 45.0657 53.7097 45.0276 53.6172C44.9895 53.5265 44.9695 53.4285 44.9695 53.3288C44.9695 53.229 44.9895 53.1328 45.0276 53.0403C45.0657 52.9478 45.1201 52.8661 45.1909 52.7954C45.2616 52.7246 45.3433 52.6702 45.4358 52.6321C45.5283 52.594 45.6245 52.5741 45.7242 52.5741C45.824 52.5741 45.9202 52.594 46.0127 52.6321C46.1052 52.6702 46.1868 52.7246 46.2576 52.7954C46.3283 52.8661 46.3828 52.9478 46.4209 53.0403C46.459 53.1328 46.4771 53.229 46.4771 53.3288Z" fill="white"/>
<path d="M87.6511 53.3288C87.5513 53.3288 87.4534 53.3487 87.3608 53.3868C87.2701 53.4249 87.1885 53.4793 87.1177 53.5501C87.047 53.6208 86.9926 53.7043 86.9545 53.7968C86.9164 53.8893 86.8964 53.9855 86.8964 54.0853C86.8964 53.9855 86.8783 53.8893 86.8384 53.7968C86.8003 53.7025 86.7458 53.6208 86.6751 53.5501C86.6043 53.4793 86.5227 53.4249 86.4302 53.3868C86.3377 53.3487 86.2415 53.3288 86.1417 53.3288C86.2415 53.3288 86.3377 53.3106 86.4302 53.2725C86.5227 53.2344 86.6043 53.18 86.6751 53.1092C86.7458 53.0385 86.8003 52.9569 86.8384 52.8643C86.8783 52.7718 86.8964 52.6757 86.8964 52.5741C86.8964 52.6738 86.9164 52.7718 86.9545 52.8625C86.9926 52.955 87.047 53.0367 87.1177 53.1074C87.1885 53.1782 87.2701 53.2326 87.3626 53.2725C87.4552 53.3106 87.5513 53.3288 87.6511 53.3288Z" fill="white"/>
<path d="M90.7696 55.1701C90.7696 55.2699 90.7514 55.3661 90.7133 55.4586C90.6752 55.5511 90.6208 55.6327 90.5501 55.7035C90.4793 55.7742 90.3977 55.8287 90.3052 55.8668C90.2126 55.9049 90.1165 55.9248 90.0167 55.9248C89.9169 55.9248 89.8208 55.9049 89.7283 55.8668C89.6357 55.8287 89.5541 55.7742 89.4834 55.7035C89.4126 55.6327 89.3582 55.5511 89.3201 55.4586C89.282 55.3661 89.262 55.2699 89.262 55.1701C89.262 55.0704 89.282 54.9742 89.3201 54.8817C89.3582 54.7892 89.4126 54.7075 89.4834 54.6368C89.5541 54.566 89.6357 54.5116 89.7283 54.4735C89.8208 54.4336 89.9169 54.4154 90.0167 54.4154C90.1165 54.4154 90.2126 54.4336 90.3052 54.4735C90.3977 54.5116 90.4793 54.566 90.5501 54.6368C90.6208 54.7075 90.6752 54.7892 90.7133 54.8817C90.7514 54.9742 90.7696 55.0704 90.7696 55.1701Z" fill="white"/>
<path d="M65.152 63.6912C61.1282 64.0957 56.64 64.1066 55.2322 64.1066L65.1374 62.8966C65.0866 63.0127 65.0068 63.1052 64.9016 63.1742C64.7946 63.2431 64.6785 63.2776 64.5515 63.2776C64.6857 63.2776 64.8073 63.3138 64.9161 63.39C65.025 63.4662 65.1048 63.566 65.152 63.6912Z" fill="white"/>
<path d="M65.8359 63.2776C65.7053 63.2776 65.5874 63.2413 65.4804 63.1687C65.3733 63.098 65.2935 63.0018 65.2427 62.8839L71.6993 62.0947C69.6565 63.0744 67.5031 63.6041 65.2391 63.6803C65.2881 63.5588 65.3661 63.4608 65.4749 63.3882C65.5838 63.3139 65.7035 63.2776 65.8359 63.2776Z" fill="white"/>
</g>
<defs>
<filter id="filter0_d_13_1501" x="0" y="0" width="122" height="122" filterUnits="userSpaceOnUse" color-interpolation-filters="sRGB">
<feFlood flood-opacity="0" result="BackgroundImageFix"/>
<feColorMatrix in="SourceAlpha" type="matrix" values="0 0 0 0 0 0 0 0 0 0 0 0 0 0 0 0 0 0 127 0" result="hardAlpha"/>
<feOffset dx="2" dy="2"/>
<feGaussianBlur stdDeviation="3"/>
<feComposite in2="hardAlpha" operator="out"/>
<feColorMatrix type="matrix" values="0 0 0 0 0 0 0 0 0 0 0 0 0 0 0 0 0 0 0.15 0"/>
<feBlend mode="normal" in2="BackgroundImageFix" result="effect1_dropShadow_13_1501"/>
<feBlend mode="normal" in="SourceGraphic" in2="effect1_dropShadow_13_1501" result="shape"/>
</filter>
<filter id="filter1_d_13_1501" x="17" y="45" width="83.6656" height="35" filterUnits="userSpaceOnUse" color-interpolation-filters="sRGB">
<feFlood flood-opacity="0" result="BackgroundImageFix"/>
<feColorMatrix in="SourceAlpha" type="matrix" values="0 0 0 0 0 0 0 0 0 0 0 0 0 0 0 0 0 0 127 0" result="hardAlpha"/>
<feOffset dy="4"/>
<feGaussianBlur stdDeviation="2"/>
<feComposite in2="hardAlpha" operator="out"/>
<feColorMatrix type="matrix" values="0 0 0 0 0 0 0 0 0 0 0 0 0 0 0 0 0 0 0.25 0"/>
<feBlend mode="normal" in2="BackgroundImageFix" result="effect1_dropShadow_13_1501"/>
<feBlend mode="normal" in="SourceGraphic" in2="effect1_dropShadow_13_1501" result="shape"/>
</filter>
</defs>
</svg>
