<svg width="122" height="122" viewBox="0 0 122 122" fill="none" xmlns="http://www.w3.org/2000/svg">
<g filter="url(#filter0_d_13_1530)">
<circle cx="59" cy="59" r="50" fill="#C70808E6"/>
<circle cx="59" cy="59" r="52.5" stroke="white" stroke-width="5"/>
</g>
<g filter="url(#filter1_d_13_1530)">
<path d="M29.3348 60.7096C30.2556 60.1207 31.2456 59.6503 32.2667 59.2528C33.2896 58.8662 34.3525 58.5508 35.4666 58.4214C36.0227 58.3575 36.5751 58.3357 37.1258 58.3484C37.6782 58.3594 38.2252 58.3958 38.7685 58.4633C39.8552 58.5946 40.931 58.8079 41.9702 59.1525C40.8799 59.096 39.8023 59.034 38.7302 59.0085C38.1942 58.9939 37.66 58.9884 37.1276 59.003C36.5952 59.0103 36.0664 59.0431 35.545 59.0996C34.5039 59.2163 33.4646 59.4716 32.4326 59.756C31.3988 60.0441 30.3723 60.3723 29.3348 60.7096Z" fill="white"/>
<path d="M76.8717 59.7998C77.6393 59.3585 78.4634 59.0285 79.3094 58.7605C80.1591 58.5034 81.0361 58.312 81.9477 58.2755C82.4017 58.2573 82.8502 58.2755 83.2951 58.3229C83.74 58.3703 84.1794 58.4359 84.6134 58.5289C85.4812 58.7131 86.3309 58.9665 87.1386 59.3348C86.258 59.2491 85.3937 59.147 84.5313 59.0686C84.101 59.0303 83.6725 58.9957 83.2459 58.9756C82.8174 58.9501 82.3926 58.9446 81.9714 58.9574C81.1345 58.9866 80.2849 59.1197 79.437 59.2747C78.5874 59.4333 77.7359 59.6193 76.8717 59.7998Z" fill="white"/>
<path d="M35.1493 60.5656C32.9432 60.5656 31.0032 61.7069 29.8873 63.4299H35.7273L37.1805 66.8322L35.7273 70.2363H29.8873C31.0032 71.9593 32.9432 73.1007 35.1493 73.1007C38.6118 73.1007 41.4178 70.2946 41.4178 66.8322C41.4178 63.3716 38.6118 60.5656 35.1493 60.5656Z" fill="white"/>
<path d="M82.5074 73.1007C84.7136 73.1007 86.6536 71.9593 87.7694 70.2363H81.9294L80.4763 66.8322L81.9294 63.4299H87.7694C86.6536 61.7069 84.7136 60.5656 82.5074 60.5656C79.045 60.5656 76.239 63.3716 76.239 66.8322C76.239 70.2946 79.045 73.1007 82.5074 73.1007Z" fill="white"/>
<path d="M46.6269 63.3169C45.8448 62.2047 45.0917 61.0651 44.3606 59.9092C44.9167 61.1599 45.4983 62.398 46.1164 63.6232C46.193 63.7764 46.2714 63.9313 46.3498 64.0845H47.1758C46.9898 63.8311 46.8074 63.5758 46.6269 63.3169Z" fill="white"/>
<path d="M47.1757 64.0845C47.3909 64.3781 47.6097 64.668 47.8303 64.9542L48.1421 65.348L48.4611 65.7309C48.5687 65.8549 48.6799 65.9734 48.7893 66.0956C48.8367 66.1466 48.8878 66.1959 48.937 66.2433L70.3278 66.834L48.6872 67.4284L48.432 67.4357L48.2551 67.2424H48.2533C48.1421 67.0929 48.0236 66.9452 47.9196 66.7976C47.8193 66.6462 47.7172 66.5004 47.6224 66.3509L47.3471 65.9005L47.0864 65.4501C46.8311 64.9961 46.5868 64.5421 46.3498 64.0845H38.8378V69.5817H78.2628V64.0845H47.1757Z" fill="white"/>
<path d="M24.1403 68.9253C24.0309 68.3692 24.0072 67.8077 24.0018 67.2461C23.9963 66.6863 24.0036 66.1248 24.0236 65.5632C24.0455 65.0016 24.0802 64.4382 24.1422 63.8748C24.2041 63.3133 24.2862 62.748 24.4284 62.1846C24.4995 61.9039 24.5852 61.6212 24.7037 61.3423C24.8277 61.0633 24.9736 60.7789 25.2307 60.5254C25.2635 60.4945 25.2981 60.4653 25.3346 60.4343L25.3893 60.3923C25.4093 60.3778 25.4312 60.3614 25.444 60.3541L25.619 60.2337C25.7375 60.1553 25.856 60.0769 25.9764 60.0003C26.2134 59.8472 26.4541 59.6958 26.6984 59.55C27.672 58.9665 28.6785 58.4414 29.7123 57.9692C31.7781 57.0266 33.9423 56.2936 36.1613 55.763C38.3802 55.2361 40.6539 54.9243 42.9403 54.8113L42.6905 54.8514C45.1774 54.1622 47.6133 53.2268 50.0256 52.1967C51.2326 51.6825 52.4323 51.1446 53.6466 50.614C54.2556 50.3497 54.8664 50.0871 55.49 49.8392C56.1153 49.593 56.7498 49.3578 57.4299 49.1809C57.7727 49.0952 58.1246 49.0205 58.5148 49.0059C58.8594 49.0004 59.1967 48.9968 59.5285 49.0041C59.8622 49.0077 60.1922 49.0187 60.5241 49.0278L61.5159 49.0606C62.8378 49.1098 64.1579 49.17 65.4761 49.2356C68.1144 49.3651 70.7491 49.511 73.3837 49.6678L73.969 49.7024L73.4439 49.9449L72.0126 51.0316L71.9233 50.1181H71.9251C72.4192 50.3023 72.9242 50.439 73.4348 50.5612C73.9453 50.6815 74.4613 50.7836 74.9736 50.8967L78.0568 51.553L81.1473 52.2021L82.6971 52.5285C82.9578 52.585 83.2149 52.6379 83.4793 52.6999L83.8767 52.7892C84.0153 52.8221 84.1648 52.8622 84.3107 52.9005L83.9515 52.8312C84.2469 52.8859 84.5368 52.9223 84.8248 52.9314C85.1129 52.9424 85.3974 52.9242 85.7019 52.8767C86.0063 52.8293 86.34 52.7436 86.7174 52.6689C87.0912 52.5905 87.5069 52.5394 87.9062 52.5522C88.0101 52.554 88.0958 52.5631 88.187 52.5686C88.2782 52.5741 88.3675 52.5832 88.4568 52.5905C88.6355 52.6069 88.8124 52.6251 88.9874 52.6452C89.3411 52.6853 89.6894 52.7309 90.0376 52.7783C90.7323 52.8749 91.4252 52.9807 92.1144 53.0974L92.2128 53.1138L92.1381 53.163C92.1125 53.2688 92.0779 53.3617 92.0414 53.4547C92.0068 53.5477 91.9667 53.6352 91.9229 53.7191C91.839 53.8869 91.7442 54.0437 91.6421 54.1913C91.4306 54.4812 91.2137 54.7639 91.0003 55.0446C90.7834 55.3254 90.5682 55.6026 90.3494 55.8761C90.1288 56.1496 89.91 56.4194 89.6748 56.6765L89.157 55.6044C89.5508 55.6172 89.8972 55.6828 90.2473 55.7721C90.5956 55.8651 90.9329 55.9909 91.2556 56.1514C91.5801 56.3118 91.8864 56.5142 92.1709 56.7421C92.4535 56.9755 92.7069 57.2453 92.9257 57.5389C93.3633 58.1278 93.6368 58.8188 93.7626 59.5099L93.7881 59.6393L93.8064 59.7615L93.8428 60.0076C93.8647 60.1699 93.8848 60.3322 93.9012 60.4945C93.9322 60.8208 93.9613 61.1435 93.9741 61.4681C94.0069 62.1154 94.0069 62.7608 93.9832 63.4044C93.9577 64.0499 93.9121 64.6935 93.8301 65.3335C93.7936 65.6544 93.7444 65.9734 93.6842 66.2925C93.6277 66.6098 93.5602 66.927 93.4745 67.2406C93.3907 67.5542 93.2904 67.866 93.1573 68.165C93.0898 68.3145 93.0132 68.4604 92.9184 68.5971C92.8254 68.7302 92.7106 68.8615 92.5611 68.9253C92.6869 68.8251 92.7562 68.681 92.8145 68.5406C92.8728 68.3966 92.9093 68.2453 92.944 68.0939C93.0096 67.7913 93.0424 67.4795 93.0716 67.1695C93.0843 67.0127 93.0935 66.8577 93.1008 66.7009C93.1099 66.5441 93.1172 66.3891 93.1208 66.2323C93.1281 65.9187 93.1299 65.6051 93.1281 65.2933C93.1135 64.0389 93.0406 62.7845 92.9148 61.5465C92.8801 61.2384 92.8491 60.9302 92.8054 60.6239C92.7853 60.4707 92.7634 60.3194 92.7397 60.1681L92.7015 59.9438L92.6814 59.8308L92.6595 59.7268C92.5483 59.1726 92.335 58.6548 92.005 58.2317C91.6786 57.8051 91.2355 57.4751 90.7341 57.2563C90.4825 57.1469 90.2181 57.063 89.9483 57.0047C89.6821 56.9463 89.3977 56.9172 89.157 56.9245L87.8059 57.0284L88.6392 55.8524C88.8543 55.5497 89.0913 55.2653 89.3466 54.9991C89.6019 54.7329 89.8699 54.4794 90.1489 54.2387C90.4278 53.9981 90.7141 53.7683 91.0167 53.555C91.1699 53.4511 91.334 53.3581 91.5108 53.2797C91.5984 53.2414 91.6895 53.2049 91.7862 53.1776C91.881 53.1466 91.9794 53.1211 92.0888 53.1065L92.1125 53.1721C91.4179 53.2414 90.7232 53.3198 90.034 53.4073C89.6894 53.4529 89.3466 53.4985 89.0038 53.5514C88.8343 53.5787 88.6647 53.6042 88.497 53.6352C88.4131 53.6498 88.3292 53.6644 88.2472 53.6808C88.1669 53.6972 88.0794 53.7136 88.0101 53.7319C87.7202 53.803 87.4559 53.9124 87.1732 54.0546C86.8925 54.1968 86.5825 54.3718 86.227 54.5323C85.8714 54.6946 85.4794 54.8331 85.0783 54.9298C84.679 55.0282 84.276 55.0866 83.8767 55.1212L83.6269 55.0975L83.5176 55.0501L83.2058 54.9152L82.8502 54.7748C82.615 54.6818 82.3671 54.5925 82.1246 54.4995C81.6359 54.3208 81.1455 54.1366 80.6495 53.9653C79.6613 53.617 78.6712 53.2688 77.6776 52.9296C76.6839 52.5923 75.6902 52.2568 74.6928 51.9286C74.1951 51.7664 73.6973 51.595 73.1959 51.44C72.6945 51.2887 72.1895 51.1519 71.6698 51.0644L70.4373 50.4609L71.5805 50.1509L73.3144 49.6842L73.3746 49.9595C70.7363 49.9303 68.0962 49.9121 65.4597 49.9084C64.1415 49.9084 62.8214 49.9121 61.5068 49.9267L60.5204 49.9413C60.1922 49.9485 59.8622 49.954 59.5377 49.9668C59.2095 49.9741 58.8867 49.9941 58.5731 50.0124C58.3033 50.0379 58.0097 50.1108 57.7162 50.2002C57.1273 50.3843 56.5329 50.6396 55.944 50.9058C55.3532 51.1738 54.7661 51.4619 54.1772 51.7536C53.0012 52.3389 51.8233 52.9406 50.6291 53.5204C48.2424 54.6836 45.7919 55.7703 43.2302 56.62L43.0843 56.6619L42.9785 56.6601C40.7997 56.6455 38.6136 56.8242 36.4603 57.2071C34.3033 57.5845 32.1756 58.1588 30.1225 58.9483C29.0979 59.344 28.0859 59.7834 27.1086 60.2866C26.8643 60.4106 26.6218 60.5419 26.3812 60.675C26.2608 60.7406 26.1405 60.8099 26.022 60.8773L25.8451 60.9813L25.7831 61.0214L25.7248 61.0651C25.5698 61.1928 25.4312 61.4024 25.3163 61.6267C25.2015 61.8528 25.1067 62.1026 25.0228 62.356C24.8587 62.8665 24.7402 63.4044 24.6454 63.9459C24.5487 64.4893 24.4776 65.0399 24.4193 65.5905C24.3628 66.143 24.319 66.6973 24.2862 67.2534C24.2552 67.8095 24.2242 68.3656 24.1403 68.9253Z" fill="white"/>
<path d="M43.1536 54.886C43.2502 54.9061 43.3742 54.9316 43.4872 54.9516C43.6021 54.9735 43.7224 54.9936 43.8409 55.0136C44.0761 55.0537 44.3132 55.0957 44.5538 55.1321L45.2722 55.2397C45.5129 55.2762 45.7536 55.3072 45.9961 55.3382C46.9606 55.4676 47.9306 55.577 48.906 55.6737C49.8797 55.7685 50.857 55.8487 51.8342 55.9216C52.8152 55.9854 53.7943 56.0493 54.777 56.0948C56.7425 56.186 58.7117 56.2334 60.679 56.2206C61.6618 56.217 62.6463 56.1915 63.6273 56.1295C63.8734 56.1167 64.1177 56.0948 64.3639 56.0784C64.6082 56.0566 64.8543 56.0329 65.0987 56.0019L65.4633 55.9563L65.8298 55.8998C66.0723 55.856 66.3148 55.8141 66.55 55.7357C66.1088 55.9654 65.6256 56.1113 65.1461 56.2462C64.6629 56.3775 64.1761 56.4905 63.6856 56.5853C63.197 56.6801 62.7029 56.7603 62.2106 56.8369C61.7165 56.9026 61.2223 56.9718 60.7264 57.0229C58.7427 57.2399 56.7535 57.3365 54.7624 57.3857C53.7669 57.4113 52.7714 57.4204 51.7722 57.4058C51.2745 57.4021 50.7749 57.3857 50.2771 57.3748C49.7776 57.3511 49.278 57.3365 48.7784 57.3055L48.0309 57.2599L47.2815 57.2016C47.0317 57.1833 46.7819 57.1578 46.5321 57.1341L46.1583 57.0995L45.7846 57.0557C45.5348 57.0284 45.285 56.9992 45.0352 56.9646C44.7854 56.9354 44.5356 56.8989 44.2858 56.8606C44.0379 56.8242 43.7862 56.7822 43.5364 56.7385C43.4106 56.7148 43.2848 56.6929 43.159 56.6674C43.0296 56.6418 42.9111 56.6163 42.7652 56.5853L43.1536 54.886Z" fill="white"/>
<path d="M89.6037 56.8971L89.5745 56.9135C89.5672 56.9172 89.5636 56.919 89.5563 56.9208L89.5235 56.9354L89.4633 56.9573C89.4232 56.9719 89.3886 56.981 89.3503 56.9919C89.2773 57.012 89.2081 57.032 89.1388 57.0448C88.9984 57.0758 88.8635 57.0958 88.7304 57.1122C88.4623 57.1432 88.1998 57.1505 87.9445 57.1469C87.6893 57.1414 87.4376 57.1195 87.1915 57.0904C87.0693 57.0758 86.9472 57.0539 86.8268 57.0357L86.4677 56.9646L86.8086 56.8424C86.9198 56.7968 87.031 56.7549 87.1386 56.7057C87.3556 56.6108 87.5653 56.5069 87.764 56.3939C87.9627 56.279 88.7869 55.5697 88.9583 55.4366C89.0421 55.371 89.6037 56.8971 89.6037 56.8971Z" fill="white"/>
</g>
<defs>
<filter id="filter0_d_13_1530" x="0" y="0" width="122" height="122" filterUnits="userSpaceOnUse" color-interpolation-filters="sRGB">
<feFlood flood-opacity="0" result="BackgroundImageFix"/>
<feColorMatrix in="SourceAlpha" type="matrix" values="0 0 0 0 0 0 0 0 0 0 0 0 0 0 0 0 0 0 127 0" result="hardAlpha"/>
<feOffset dx="2" dy="2"/>
<feGaussianBlur stdDeviation="3"/>
<feComposite in2="hardAlpha" operator="out"/>
<feColorMatrix type="matrix" values="0 0 0 0 0 0 0 0 0 0 0 0 0 0 0 0 0 0 0.15 0"/>
<feBlend mode="normal" in2="BackgroundImageFix" result="effect1_dropShadow_13_1530"/>
<feBlend mode="normal" in="SourceGraphic" in2="effect1_dropShadow_13_1530" result="shape"/>
</filter>
<filter id="filter1_d_13_1530" x="20" y="49" width="78" height="32.1007" filterUnits="userSpaceOnUse" color-interpolation-filters="sRGB">
<feFlood flood-opacity="0" result="BackgroundImageFix"/>
<feColorMatrix in="SourceAlpha" type="matrix" values="0 0 0 0 0 0 0 0 0 0 0 0 0 0 0 0 0 0 127 0" result="hardAlpha"/>
<feOffset dy="4"/>
<feGaussianBlur stdDeviation="2"/>
<feComposite in2="hardAlpha" operator="out"/>
<feColorMatrix type="matrix" values="0 0 0 0 0 0 0 0 0 0 0 0 0 0 0 0 0 0 0.25 0"/>
<feBlend mode="normal" in2="BackgroundImageFix" result="effect1_dropShadow_13_1530"/>
<feBlend mode="normal" in="SourceGraphic" in2="effect1_dropShadow_13_1530" result="shape"/>
</filter>
</defs>
</svg>
