<svg width="84" height="84" viewBox="0 0 84 84" fill="none" xmlns="http://www.w3.org/2000/svg">
<path d="M42 3.77344C30.2384 3.77344 20.6719 13.3399 20.6719 25.1016C20.6719 36.8632 30.2384 46.4297 42 46.4297C53.7616 46.4297 63.3281 36.8632 63.3281 25.1016C63.3281 13.3399 53.7616 3.77344 42 3.77344ZM40.6334 8.88021L38.7017 14.6628L47.2567 13.7665L46.4059 10.9024L48.8051 11.5667V14.7441L52.5528 14.9886L51.8198 12.1372L53.7897 10.9963C57.8173 14.3642 60.375 19.4278 60.375 25.1016C60.375 27.8362 59.7803 30.4288 58.7139 32.7587L54.4269 33.4842V38.6485C53.6091 39.3989 52.7251 40.0738 51.7857 40.6649L49.9455 37.8023L46.3605 38.7801L47.3678 42.6825C45.6275 43.2105 43.8186 43.4781 42 43.4766C36.9119 43.4766 32.3142 41.42 28.9903 38.091L32.265 37.6395L34.4651 33.3211L27.4577 29.8177L32.4279 25.5806L28.1098 21.9959L23.6977 23.4664C24.2082 17.6507 27.4142 12.6213 32.0639 9.63293L32.9984 17.107L40.6334 8.88021ZM47.0121 19.4158L41.078 23.2181L46.2633 27.8271L50.0084 26.7325L49.6625 31.2263L56.5187 29.4979L53.9259 23.6216L49.7779 23.6791L53.4652 20.5104L47.0123 19.4158H47.0121ZM40.8478 26.0411L37.6789 27.4237L39.9258 29.0945L40.8478 26.0411ZM33.4056 26.5586L31.2058 29.1656L37.3003 33.4489L33.4056 26.5586ZM43.21 27.9999L40.9631 32.206L46.3788 35.8931L44.4773 33.1851L46.8395 30.3621L43.21 27.9999ZM9.87164 32.4944C8.42494 32.4719 6.94427 34.3143 6.93574 39.0375C6.92295 46.2814 6.22109 48.3261 9.57337 56.5185C12.0315 62.5262 13.1339 67.1437 21 70.875C21.9319 74.1599 21.5599 74.9323 20.9278 77.7394C20.3378 80.3601 26.4113 80.8418 30.8592 78.634C35.6319 76.0307 35.2314 68.8629 34.3788 64.0023C33.3872 58.3496 30.2674 57.1748 27.5632 54.7603C24.7552 50.7449 24.1018 43.4707 19.5477 40.5362C18.5966 39.9235 13.7448 39.3013 20.411 55.9486C11.622 53.7718 13.2229 43.6811 12.5874 36.2102C12.398 33.9854 11.148 32.5139 9.87164 32.4942V32.4944ZM74.1284 32.4944C72.8519 32.5141 71.602 33.9854 71.4126 36.2104C70.7771 43.6811 72.378 53.7718 63.589 55.9486C70.2553 39.3012 65.4033 39.9235 64.4523 40.5362C59.8982 43.4707 59.2449 50.7449 56.4368 54.7605C53.7328 57.1748 50.6126 58.3496 49.6212 64.0023C48.7686 68.8629 48.3681 76.0307 53.1408 78.634C57.5887 80.8416 63.6622 80.3601 63.072 77.7394C62.4401 74.9323 62.0681 74.1599 63 70.875C70.8661 67.1437 71.9685 62.5262 74.4266 56.5185C77.7789 48.3261 77.0771 46.2814 77.0643 39.0377C77.0557 34.3143 75.5751 32.4719 74.1284 32.4944Z" fill="#C70808E6"/>
</svg>
