<svg width="320" height="290" viewBox="0 0 320 290" fill="none" xmlns="http://www.w3.org/2000/svg">
<g filter="url(#filter0_d_13_2109)">
<path d="M16 26C16 20.4772 20.4772 16 26 16H286C291.523 16 296 20.4772 296 26V256C296 261.523 291.523 266 286 266H26C20.4771 266 16 261.523 16 256V26Z" fill="white"/>
</g>
<path d="M109.29 166.53H102V179.112H109.29V177.06H104.52V173.73H108.75V171.732H104.52V168.582H109.29V166.53Z" fill="#FF1616"/>
<path d="M110.932 174.126C110.932 177.258 112.984 179.274 115.864 179.274C118.348 179.274 120.022 177.87 120.562 175.746H117.844C117.538 176.646 116.89 177.114 115.846 177.114C114.442 177.114 113.506 176.07 113.506 174.126C113.506 172.182 114.442 171.12 115.846 171.12C116.89 171.12 117.556 171.66 117.844 172.506H120.562C120.022 170.274 118.348 168.978 115.864 168.978C112.984 168.978 110.932 170.994 110.932 174.126Z" fill="#FF1616"/>
<path d="M132.038 174.126C132.038 170.976 129.788 168.978 126.908 168.978C124.028 168.978 121.778 170.976 121.778 174.126C121.778 177.258 123.956 179.274 126.836 179.274C129.734 179.274 132.038 177.258 132.038 174.126ZM124.334 174.126C124.334 172.128 125.54 171.174 126.872 171.174C128.204 171.174 129.446 172.128 129.446 174.126C129.446 176.106 128.168 177.078 126.836 177.078C125.486 177.078 124.334 176.106 124.334 174.126Z" fill="#FF1616"/>
<path d="M138.176 179.112H140.696V173.802H144.71V171.804H140.696V168.582H145.934V166.548H138.176V179.112Z" fill="#FF1616"/>
<path d="M150.241 174.144C150.241 172.218 151.141 171.642 152.635 171.642H153.301V168.996C151.915 168.996 150.871 169.662 150.241 170.688V169.14H147.721V179.112H150.241V174.144Z" fill="#FF1616"/>
<path d="M154.998 179.112H157.518V169.14H154.998V179.112ZM156.276 167.952C157.158 167.952 157.824 167.304 157.824 166.476C157.824 165.648 157.158 165 156.276 165C155.376 165 154.728 165.648 154.728 166.476C154.728 167.304 155.376 167.952 156.276 167.952Z" fill="#FF1616"/>
<path d="M164.292 171.048C165.588 171.048 166.632 171.876 166.668 173.19H161.934C162.132 171.822 163.086 171.048 164.292 171.048ZM169.026 175.98H166.308C165.984 176.646 165.39 177.186 164.31 177.186C163.05 177.186 162.042 176.358 161.916 174.882H169.206C169.26 174.558 169.278 174.234 169.278 173.91C169.278 170.94 167.244 168.978 164.364 168.978C161.412 168.978 159.36 170.976 159.36 174.126C159.36 177.258 161.466 179.274 164.364 179.274C166.83 179.274 168.486 177.816 169.026 175.98Z" fill="#FF1616"/>
<path d="M178.101 179.112H180.621V173.262C180.621 170.508 178.965 168.996 176.643 168.996C175.365 168.996 174.285 169.536 173.637 170.382V169.14H171.117V179.112H173.637V173.604C173.637 172.002 174.519 171.138 175.887 171.138C177.219 171.138 178.101 172.002 178.101 173.604V179.112Z" fill="#FF1616"/>
<path d="M182.37 174.09C182.37 177.204 184.386 179.274 186.924 179.274C188.49 179.274 189.606 178.554 190.2 177.636V179.112H192.756V165.792H190.2V170.526C189.516 169.59 188.256 168.978 186.942 168.978C184.386 168.978 182.37 170.976 182.37 174.09ZM190.218 174.126C190.218 176.016 188.958 177.06 187.572 177.06C186.222 177.06 184.944 175.98 184.944 174.09C184.944 172.2 186.222 171.192 187.572 171.192C188.958 171.192 190.218 172.236 190.218 174.126Z" fill="#FF1616"/>
<path d="M195.217 179.112H197.737V165.792H195.217V179.112Z" fill="#FF1616"/>
<path d="M204.475 176.106L201.901 169.14H199.075L203.071 178.86L200.911 183.828H203.593L209.767 169.14H207.085L204.475 176.106Z" fill="#FF1616"/>
<defs>
<filter id="filter0_d_13_2109" x="0" y="0" width="320" height="290" filterUnits="userSpaceOnUse" color-interpolation-filters="sRGB">
<feFlood flood-opacity="0" result="BackgroundImageFix"/>
<feColorMatrix in="SourceAlpha" type="matrix" values="0 0 0 0 0 0 0 0 0 0 0 0 0 0 0 0 0 0 127 0" result="hardAlpha"/>
<feOffset dx="4" dy="4"/>
<feGaussianBlur stdDeviation="10"/>
<feComposite in2="hardAlpha" operator="out"/>
<feColorMatrix type="matrix" values="0 0 0 0 0 0 0 0 0 0 0 0 0 0 0 0 0 0 0.1 0"/>
<feBlend mode="normal" in2="BackgroundImageFix" result="effect1_dropShadow_13_2109"/>
<feBlend mode="normal" in="SourceGraphic" in2="effect1_dropShadow_13_2109" result="shape"/>
</filter>
</defs>
</svg>
