<svg width="320" height="290" viewBox="0 0 320 290" fill="none" xmlns="http://www.w3.org/2000/svg">
<g filter="url(#filter0_d_13_2085)">
<path d="M16 26C16 20.4772 20.4772 16 26 16H286C291.523 16 296 20.4772 296 26V256C296 261.523 291.523 266 286 266H26C20.4771 266 16 261.523 16 256V26Z" fill="white"/>
</g>
<path d="M101 185.112H103.52V179.802H107.534V177.804H103.52V174.582H108.758V172.548H101V185.112Z" fill="#FF1616"/>
<path d="M109.897 180.09C109.897 183.204 111.913 185.274 114.433 185.274C116.017 185.274 117.151 184.518 117.745 183.654V185.112H120.283V175.14H117.745V176.562C117.151 175.734 116.053 174.978 114.451 174.978C111.913 174.978 109.897 176.976 109.897 180.09ZM117.745 180.126C117.745 182.016 116.485 183.06 115.099 183.06C113.749 183.06 112.471 181.98 112.471 180.09C112.471 178.2 113.749 177.192 115.099 177.192C116.485 177.192 117.745 178.236 117.745 180.126Z" fill="#FF1616"/>
<path d="M130.484 182.268C130.412 178.614 124.886 179.748 124.886 177.93C124.886 177.354 125.372 176.976 126.308 176.976C127.298 176.976 127.91 177.498 127.982 178.272H130.394C130.25 176.292 128.792 174.978 126.38 174.978C123.914 174.978 122.438 176.31 122.438 177.966C122.438 181.62 128.072 180.486 128.072 182.268C128.072 182.844 127.532 183.294 126.542 183.294C125.534 183.294 124.832 182.718 124.742 181.962H122.204C122.312 183.816 124.058 185.274 126.56 185.274C128.99 185.274 130.484 183.978 130.484 182.268Z" fill="#FF1616"/>
<path d="M132.949 182.016C132.949 184.302 134.227 185.112 136.135 185.112H137.719V182.988H136.549C135.757 182.988 135.487 182.7 135.487 182.034V177.21H137.719V175.14H135.487V172.674H132.949V175.14H131.761V177.21H132.949V182.016Z" fill="#FF1616"/>
<path d="M152.604 181.476C152.604 177.048 146.16 178.452 146.16 175.932C146.16 174.906 146.898 174.42 147.888 174.456C148.968 174.474 149.634 175.122 149.688 175.95H152.46C152.298 173.682 150.534 172.368 147.96 172.368C145.368 172.368 143.532 173.736 143.532 176.004C143.514 180.558 149.994 178.92 149.994 181.638C149.994 182.538 149.292 183.168 148.104 183.168C146.934 183.168 146.268 182.502 146.196 181.494H143.496C143.532 183.87 145.548 185.238 148.158 185.238C151.02 185.238 152.604 183.456 152.604 181.476Z" fill="#FF1616"/>
<path d="M159.073 177.048C160.369 177.048 161.413 177.876 161.449 179.19H156.715C156.913 177.822 157.867 177.048 159.073 177.048ZM163.807 181.98H161.089C160.765 182.646 160.171 183.186 159.091 183.186C157.831 183.186 156.823 182.358 156.697 180.882H163.987C164.041 180.558 164.059 180.234 164.059 179.91C164.059 176.94 162.025 174.978 159.145 174.978C156.193 174.978 154.141 176.976 154.141 180.126C154.141 183.258 156.247 185.274 159.145 185.274C161.611 185.274 163.267 183.816 163.807 181.98Z" fill="#FF1616"/>
<path d="M168.418 180.144C168.418 178.218 169.318 177.642 170.812 177.642H171.478V174.996C170.092 174.996 169.048 175.662 168.418 176.688V175.14H165.898V185.112H168.418V180.144Z" fill="#FF1616"/>
<path d="M172.114 175.14L175.786 185.112H178.846L182.536 175.14H179.854L177.334 182.79L174.814 175.14H172.114Z" fill="#FF1616"/>
<path d="M183.951 185.112H186.471V175.14H183.951V185.112ZM185.229 173.952C186.111 173.952 186.777 173.304 186.777 172.476C186.777 171.648 186.111 171 185.229 171C184.329 171 183.681 171.648 183.681 172.476C183.681 173.304 184.329 173.952 185.229 173.952Z" fill="#FF1616"/>
<path d="M188.313 180.126C188.313 183.258 190.365 185.274 193.245 185.274C195.729 185.274 197.403 183.87 197.943 181.746H195.225C194.919 182.646 194.271 183.114 193.227 183.114C191.823 183.114 190.887 182.07 190.887 180.126C190.887 178.182 191.823 177.12 193.227 177.12C194.271 177.12 194.937 177.66 195.225 178.506H197.943C197.403 176.274 195.729 174.978 193.245 174.978C190.365 174.978 188.313 176.994 188.313 180.126Z" fill="#FF1616"/>
<path d="M204.073 177.048C205.369 177.048 206.413 177.876 206.449 179.19H201.715C201.913 177.822 202.867 177.048 204.073 177.048ZM208.807 181.98H206.089C205.765 182.646 205.171 183.186 204.091 183.186C202.831 183.186 201.823 182.358 201.697 180.882H208.987C209.041 180.558 209.059 180.234 209.059 179.91C209.059 176.94 207.025 174.978 204.145 174.978C201.193 174.978 199.141 176.976 199.141 180.126C199.141 183.258 201.247 185.274 204.145 185.274C206.611 185.274 208.267 183.816 208.807 181.98Z" fill="#FF1616"/>
<defs>
<filter id="filter0_d_13_2085" x="0" y="0" width="320" height="290" filterUnits="userSpaceOnUse" color-interpolation-filters="sRGB">
<feFlood flood-opacity="0" result="BackgroundImageFix"/>
<feColorMatrix in="SourceAlpha" type="matrix" values="0 0 0 0 0 0 0 0 0 0 0 0 0 0 0 0 0 0 127 0" result="hardAlpha"/>
<feOffset dx="4" dy="4"/>
<feGaussianBlur stdDeviation="10"/>
<feComposite in2="hardAlpha" operator="out"/>
<feColorMatrix type="matrix" values="0 0 0 0 0 0 0 0 0 0 0 0 0 0 0 0 0 0 0.1 0"/>
<feBlend mode="normal" in2="BackgroundImageFix" result="effect1_dropShadow_13_2085"/>
<feBlend mode="normal" in="SourceGraphic" in2="effect1_dropShadow_13_2085" result="shape"/>
</filter>
</defs>
</svg>
