<svg width="122" height="122" viewBox="0 0 122 122" fill="none" xmlns="http://www.w3.org/2000/svg">
<g filter="url(#filter0_d_13_1622)">
<circle cx="59" cy="59" r="50" fill="#C70808E6"/>
<circle cx="59" cy="59" r="52.5" stroke="white" stroke-width="5"/>
</g>
<g filter="url(#filter1_d_13_1622)">
<path fill-rule="evenodd" clip-rule="evenodd" d="M34.4498 78.1646H82.5502C86.0985 78.1646 89 78.4239 89 78.74C89 79.0577 86.0985 79.3171 82.5502 79.3171H34.4498C30.9031 79.3171 28 79.0577 28 78.74C28 78.4239 30.9031 78.1646 34.4498 78.1646Z" fill="white"/>
<path fill-rule="evenodd" clip-rule="evenodd" d="M44.9672 80.2152H72.1225C75.6726 80.2152 78.5756 80.4406 78.5756 80.7152C78.5756 80.9913 75.6726 81.2167 72.1225 81.2167H44.9672C41.4187 81.2167 38.5157 80.9913 38.5157 80.7152C38.5157 80.4406 41.4187 80.2152 44.9672 80.2152Z" fill="white"/>
<path fill-rule="evenodd" clip-rule="evenodd" d="M54.9805 82.2948H62.2375C65.7842 82.2948 68.6857 82.5525 68.6857 82.8702C68.6857 83.1879 65.7842 83.4473 62.2375 83.4473H54.9805C51.4338 83.4473 48.5307 83.1879 48.5307 82.8702C48.5307 82.5525 51.4338 82.2948 54.9805 82.2948Z" fill="white"/>
<path d="M49.7956 65.7006L48.7132 64.6235L46.2512 62.1641L45.1689 61.0843C44.6107 61.4677 43.9587 61.6633 43.3041 61.6686C42.6573 61.6738 42.0105 61.4938 41.4471 61.1235C40.0336 62.7092 38.9695 64.2297 38.5026 65.8571C38.0175 67.5471 38.1714 69.391 39.2433 71.6157C41.4732 72.6876 43.3223 72.8415 45.015 72.3564C46.645 71.8896 48.1681 70.8281 49.7538 69.4197C49.3861 68.8564 49.2035 68.2096 49.2113 67.5628C49.214 66.9108 49.4096 66.2614 49.7956 65.7006ZM73.6958 41.224L69.6899 37.2258L69.682 37.2232L69.6768 37.2258L68.6597 38.2403L68.6571 38.2455L68.6597 38.2534L69.4317 39.0227L71.8963 41.4821L72.6657 42.2515L72.6735 42.2567V42.2541L72.6787 42.2515L73.6958 41.2396L73.6985 41.2318L73.6958 41.224ZM70.5557 36.3599L74.5617 40.3581C74.8017 40.598 74.9216 40.9136 74.9216 41.2292L74.9242 41.2318C74.9242 41.5473 74.8043 41.8629 74.5617 42.1029L73.5472 43.1174C73.3046 43.3573 72.9891 43.4773 72.6735 43.4773H72.6709C72.3553 43.4747 72.0397 43.3573 71.7998 43.1174L71.0278 42.348L49.5817 63.7576L51.4882 65.6615L51.0552 66.0944C50.6458 66.5039 50.4371 67.0386 50.4319 67.5732C50.4293 68.1105 50.6275 68.6503 51.0266 69.0624L51.4647 69.5136L51.0031 69.9361C49.1357 71.6496 47.344 72.9589 45.3488 73.53C43.3197 74.1116 41.129 73.9238 38.5131 72.6198L38.3305 72.5285L38.2392 72.346C36.9326 69.7353 36.7448 67.5471 37.3264 65.5233C37.9002 63.5333 39.2094 61.7442 40.9281 59.8768L41.3506 59.4178L41.8018 59.8533C42.2165 60.255 42.7564 60.4532 43.2963 60.448C43.8309 60.4428 44.3656 60.2367 44.7776 59.8247L45.2106 59.3917L47.1171 61.2982L68.5658 39.8886L67.7938 39.1166C67.5512 38.8767 67.4313 38.5611 67.4313 38.2455C67.4313 37.93 67.5512 37.6144 67.7938 37.3744L68.8083 36.3599C69.0483 36.12 69.3665 36 69.682 36C69.9976 36 70.3158 36.12 70.5557 36.3599ZM48.3507 62.5266L48.7132 62.8917L70.1619 41.4821L69.4317 40.7545L47.9856 62.1641L48.3507 62.5266Z" fill="white"/>
<path fill-rule="evenodd" clip-rule="evenodd" d="M48.0794 39.8886L69.5255 61.2982L71.4347 59.3943L71.8676 59.8273C72.2797 60.2367 72.8143 60.4428 73.349 60.448C73.8862 60.4532 74.4287 60.255 74.8434 59.8533L75.2946 59.4178L75.7171 59.8768C77.4332 61.7442 78.7451 63.5333 79.3162 65.5233C79.8978 67.5471 79.71 69.7353 78.4034 72.346L78.3121 72.5285L78.1295 72.6198C75.5137 73.9238 73.3229 74.1116 71.2964 73.53C69.3013 72.9589 67.5095 71.6496 65.6395 69.9361L65.1805 69.5136L65.6161 69.0624C66.0177 68.6503 66.2159 68.1105 66.2107 67.5732C66.2081 67.0386 65.9994 66.5039 65.59 66.0944L65.1544 65.6615L67.0635 63.7576L45.6174 42.348L44.8455 43.1174C44.6055 43.3573 44.2899 43.4773 43.9744 43.4773H43.9718C43.6562 43.4773 43.338 43.3573 43.0981 43.1174L42.0809 42.1029C41.841 41.8629 41.721 41.5473 41.721 41.2318L41.7236 41.2292C41.7236 40.9136 41.8436 40.598 42.0835 40.3607L46.0895 36.3599C46.3294 36.12 46.6476 36 46.9632 36C47.2788 36 47.597 36.12 47.8369 36.3599L48.8514 37.3744C49.0914 37.6144 49.2113 37.93 49.2113 38.2455C49.2113 38.5611 49.0914 38.8767 48.8514 39.1166L48.0794 39.8886Z" fill="white"/>
<path d="M66.8497 65.7006L67.9294 64.6235L70.394 62.1641L71.4738 61.0843C72.0345 61.4677 72.6865 61.6633 73.3385 61.6686C73.9853 61.6738 74.6347 61.4938 75.1981 61.1235C76.609 62.7092 77.6731 64.2297 78.1426 65.8571C78.6277 67.5471 78.4738 69.391 77.3993 71.6157C75.172 72.6876 73.3229 72.8415 71.6303 72.3564C70.0002 71.8896 68.4771 70.8281 66.8888 69.4197C67.2591 68.8564 67.4391 68.2096 67.4339 67.5628C67.4287 66.9108 67.2331 66.2614 66.8497 65.7006ZM42.9494 41.224L46.9554 37.2258L46.9632 37.2232L46.9684 37.2258L47.9856 38.2403V38.2455L47.983 38.2534L47.2136 39.0227L44.749 41.4821L43.977 42.2515L43.9718 42.2567V42.2541L43.9639 42.2515L42.9494 41.2396L42.9468 41.2318H42.9442L42.9494 41.224ZM46.0895 36.3599L42.0835 40.3581C41.8436 40.598 41.7236 40.9136 41.7236 41.2292L41.721 41.2318C41.721 41.5473 41.841 41.8629 42.0809 42.1029L43.0981 43.1174C43.338 43.3573 43.6562 43.4773 43.9718 43.4773C44.2899 43.4747 44.6055 43.3573 44.8455 43.1174L45.6174 42.348L67.0635 63.7576L65.1544 65.6615L65.59 66.0944C65.9994 66.5039 66.2081 67.0386 66.2107 67.5732C66.2159 68.1105 66.0177 68.6503 65.6161 69.0624L65.1805 69.5136L65.6395 69.9361C67.5095 71.6496 69.3013 72.9589 71.2964 73.53C73.3255 74.1116 75.5163 73.9238 78.1295 72.6198L78.3121 72.5285L78.4034 72.346C79.71 69.7353 79.9004 67.5471 79.3162 65.5233C78.7451 63.5333 77.4332 61.7442 75.7171 59.8768L75.2946 59.4178L74.8434 59.8533C74.4287 60.255 73.8888 60.4532 73.349 60.448C72.8143 60.4428 72.2797 60.2367 71.8676 59.8247L71.4347 59.3917L69.5282 61.2982L48.0794 39.8886L48.8514 39.1166C49.0914 38.8767 49.2113 38.5611 49.2113 38.2455C49.2113 37.93 49.0914 37.6144 48.8514 37.3744L47.8369 36.3599C47.5943 36.12 47.2788 36 46.9632 36C46.6476 36 46.3294 36.12 46.0895 36.3599ZM68.2945 62.5266L67.9294 62.8917L46.4833 41.4821L47.2136 40.7545L68.6597 62.1641L68.2945 62.5266Z" fill="white"/>
</g>
<defs>
<filter id="filter0_d_13_1622" x="0" y="0" width="122" height="122" filterUnits="userSpaceOnUse" color-interpolation-filters="sRGB">
<feFlood flood-opacity="0" result="BackgroundImageFix"/>
<feColorMatrix in="SourceAlpha" type="matrix" values="0 0 0 0 0 0 0 0 0 0 0 0 0 0 0 0 0 0 127 0" result="hardAlpha"/>
<feOffset dx="2" dy="2"/>
<feGaussianBlur stdDeviation="3"/>
<feComposite in2="hardAlpha" operator="out"/>
<feColorMatrix type="matrix" values="0 0 0 0 0 0 0 0 0 0 0 0 0 0 0 0 0 0 0.15 0"/>
<feBlend mode="normal" in2="BackgroundImageFix" result="effect1_dropShadow_13_1622"/>
<feBlend mode="normal" in="SourceGraphic" in2="effect1_dropShadow_13_1622" result="shape"/>
</filter>
<filter id="filter1_d_13_1622" x="24" y="36" width="69" height="55.4473" filterUnits="userSpaceOnUse" color-interpolation-filters="sRGB">
<feFlood flood-opacity="0" result="BackgroundImageFix"/>
<feColorMatrix in="SourceAlpha" type="matrix" values="0 0 0 0 0 0 0 0 0 0 0 0 0 0 0 0 0 0 127 0" result="hardAlpha"/>
<feOffset dy="4"/>
<feGaussianBlur stdDeviation="2"/>
<feComposite in2="hardAlpha" operator="out"/>
<feColorMatrix type="matrix" values="0 0 0 0 0 0 0 0 0 0 0 0 0 0 0 0 0 0 0.25 0"/>
<feBlend mode="normal" in2="BackgroundImageFix" result="effect1_dropShadow_13_1622"/>
<feBlend mode="normal" in="SourceGraphic" in2="effect1_dropShadow_13_1622" result="shape"/>
</filter>
</defs>
</svg>
