<svg width="320" height="290" viewBox="0 0 320 290" fill="none" xmlns="http://www.w3.org/2000/svg">
<g filter="url(#filter0_d_13_2078)">
<path d="M16 26C16 20.4772 20.4772 16 26 16H286C291.523 16 296 20.4772 296 26V256C296 261.523 291.523 266 286 266H26C20.4771 266 16 261.523 16 256V26Z" fill="white"/>
</g>
<path d="M107.902 179.112H110.422V166.548H107.902V171.714H102.52V166.548H100V179.112H102.52V173.766H107.902V179.112Z" fill="#FF1616"/>
<path d="M112.902 179.112H115.422V169.14H112.902V179.112ZM114.18 167.952C115.062 167.952 115.728 167.304 115.728 166.476C115.728 165.648 115.062 165 114.18 165C113.28 165 112.632 165.648 112.632 166.476C112.632 167.304 113.28 167.952 114.18 167.952Z" fill="#FF1616"/>
<path d="M117.264 174.09C117.264 177.204 119.28 179.274 121.818 179.274C123.384 179.274 124.518 178.5 125.112 177.636V179.184C125.112 181.038 124.032 181.83 122.646 181.83C121.386 181.83 120.45 181.236 120.198 180.336H117.696C117.948 182.622 119.91 184.026 122.718 184.026C125.994 184.026 127.65 181.884 127.65 179.184V169.14H125.112V170.562C124.518 169.698 123.384 168.978 121.818 168.978C119.28 168.978 117.264 170.976 117.264 174.09ZM125.112 174.126C125.112 176.016 123.852 177.06 122.466 177.06C121.116 177.06 119.838 175.98 119.838 174.09C119.838 172.2 121.116 171.192 122.466 171.192C123.852 171.192 125.112 172.236 125.112 174.126Z" fill="#FF1616"/>
<path d="M130.111 179.112H132.631V173.604C132.631 172.002 133.513 171.138 134.881 171.138C136.213 171.138 137.095 172.002 137.095 173.604V179.112H139.615V173.262C139.615 170.508 137.977 168.996 135.727 168.996C134.395 168.996 133.279 169.536 132.631 170.382V165.792H130.111V179.112Z" fill="#FF1616"/>
<path d="M148.281 172.794C148.281 170.238 149.847 168.636 152.133 168.636C154.401 168.636 155.967 170.238 155.967 172.794C155.967 175.35 154.401 176.988 152.133 176.988C149.847 176.988 148.281 175.35 148.281 172.794ZM158.559 172.794C158.559 169.032 155.715 166.368 152.133 166.368C148.587 166.368 145.689 169.032 145.689 172.794C145.689 176.574 148.587 179.238 152.133 179.238C152.691 179.238 153.249 179.166 153.753 179.04L155.661 181.326H158.793L155.913 178.086C157.515 176.952 158.559 175.08 158.559 172.794Z" fill="#FF1616"/>
<path d="M169.883 169.14H167.345V174.63C167.345 176.232 166.481 177.096 165.113 177.096C163.781 177.096 162.899 176.232 162.899 174.63V169.14H160.379V174.99C160.379 177.726 162.053 179.238 164.375 179.238C165.617 179.238 166.715 178.698 167.345 177.852V179.112H169.883V169.14Z" fill="#FF1616"/>
<path d="M171.721 174.09C171.721 177.204 173.737 179.274 176.257 179.274C177.841 179.274 178.975 178.518 179.569 177.654V179.112H182.107V169.14H179.569V170.562C178.975 169.734 177.877 168.978 176.275 168.978C173.737 168.978 171.721 170.976 171.721 174.09ZM179.569 174.126C179.569 176.016 178.309 177.06 176.923 177.06C175.573 177.06 174.295 175.98 174.295 174.09C174.295 172.2 175.573 171.192 176.923 171.192C178.309 171.192 179.569 172.236 179.569 174.126Z" fill="#FF1616"/>
<path d="M184.568 179.112H187.088V165.792H184.568V179.112Z" fill="#FF1616"/>
<path d="M189.578 179.112H192.098V169.14H189.578V179.112ZM190.856 167.952C191.738 167.952 192.404 167.304 192.404 166.476C192.404 165.648 191.738 165 190.856 165C189.956 165 189.308 165.648 189.308 166.476C189.308 167.304 189.956 167.952 190.856 167.952Z" fill="#FF1616"/>
<path d="M194.984 176.016C194.984 178.302 196.262 179.112 198.17 179.112H199.754V176.988H198.584C197.792 176.988 197.522 176.7 197.522 176.034V171.21H199.754V169.14H197.522V166.674H194.984V169.14H193.796V171.21H194.984V176.016Z" fill="#FF1616"/>
<path d="M205.814 176.106L203.24 169.14H200.414L204.41 178.86L202.25 183.828H204.932L211.106 169.14H208.424L205.814 176.106Z" fill="#FF1616"/>
<defs>
<filter id="filter0_d_13_2078" x="0" y="0" width="320" height="290" filterUnits="userSpaceOnUse" color-interpolation-filters="sRGB">
<feFlood flood-opacity="0" result="BackgroundImageFix"/>
<feColorMatrix in="SourceAlpha" type="matrix" values="0 0 0 0 0 0 0 0 0 0 0 0 0 0 0 0 0 0 127 0" result="hardAlpha"/>
<feOffset dx="4" dy="4"/>
<feGaussianBlur stdDeviation="10"/>
<feComposite in2="hardAlpha" operator="out"/>
<feColorMatrix type="matrix" values="0 0 0 0 0 0 0 0 0 0 0 0 0 0 0 0 0 0 0.1 0"/>
<feBlend mode="normal" in2="BackgroundImageFix" result="effect1_dropShadow_13_2078"/>
<feBlend mode="normal" in="SourceGraphic" in2="effect1_dropShadow_13_2078" result="shape"/>
</filter>
</defs>
</svg>
