<svg width="320" height="290" viewBox="0 0 320 290" fill="none" xmlns="http://www.w3.org/2000/svg">
<g filter="url(#filter0_d_13_2095)">
<path d="M16 26C16 20.4772 20.4772 16 26 16H286C291.523 16 296 20.4772 296 26V256C296 261.523 291.523 266 286 266H26C20.4771 266 16 261.523 16 256V26Z" fill="white"/>
</g>
<path d="M87.52 177.254V173.6H89.518C90.94 173.6 91.57 174.284 91.57 175.436C91.57 176.552 90.94 177.254 89.518 177.254H87.52ZM94.162 175.436C94.162 173.258 92.65 171.548 89.626 171.548H85V184.112H87.52V179.288H89.626C92.866 179.288 94.162 177.344 94.162 175.436Z" fill="#FF1616"/>
<path d="M98.4712 179.144C98.4712 177.218 99.3712 176.642 100.865 176.642H101.531V173.996C100.145 173.996 99.1012 174.662 98.4712 175.688V174.14H95.9512V184.112H98.4712V179.144Z" fill="#FF1616"/>
<path d="M112.859 179.126C112.859 175.976 110.609 173.978 107.729 173.978C104.849 173.978 102.599 175.976 102.599 179.126C102.599 182.258 104.777 184.274 107.657 184.274C110.555 184.274 112.859 182.258 112.859 179.126ZM105.155 179.126C105.155 177.128 106.361 176.174 107.693 176.174C109.025 176.174 110.267 177.128 110.267 179.126C110.267 181.106 108.989 182.078 107.657 182.078C106.307 182.078 105.155 181.106 105.155 179.126Z" fill="#FF1616"/>
<path d="M114.977 184.112H117.533V176.21H119.279V174.14H117.533V173.726C117.533 172.61 117.947 172.214 119.171 172.25V170.126C116.363 170.054 114.977 171.188 114.977 173.636V174.14H113.843V176.21H114.977V184.112Z" fill="#FF1616"/>
<path d="M125.196 176.048C126.492 176.048 127.536 176.876 127.572 178.19H122.838C123.036 176.822 123.99 176.048 125.196 176.048ZM129.93 180.98H127.212C126.888 181.646 126.294 182.186 125.214 182.186C123.954 182.186 122.946 181.358 122.82 179.882H130.11C130.164 179.558 130.182 179.234 130.182 178.91C130.182 175.94 128.148 173.978 125.268 173.978C122.316 173.978 120.264 175.976 120.264 179.126C120.264 182.258 122.37 184.274 125.268 184.274C127.734 184.274 129.39 182.816 129.93 180.98Z" fill="#FF1616"/>
<path d="M139.761 181.268C139.689 177.614 134.163 178.748 134.163 176.93C134.163 176.354 134.649 175.976 135.585 175.976C136.575 175.976 137.187 176.498 137.259 177.272H139.671C139.527 175.292 138.069 173.978 135.657 173.978C133.191 173.978 131.715 175.31 131.715 176.966C131.715 180.62 137.349 179.486 137.349 181.268C137.349 181.844 136.809 182.294 135.819 182.294C134.811 182.294 134.109 181.718 134.019 180.962H131.481C131.589 182.816 133.335 184.274 135.837 184.274C138.267 184.274 139.761 182.978 139.761 181.268Z" fill="#FF1616"/>
<path d="M149.57 181.268C149.498 177.614 143.972 178.748 143.972 176.93C143.972 176.354 144.458 175.976 145.394 175.976C146.384 175.976 146.996 176.498 147.068 177.272H149.48C149.336 175.292 147.878 173.978 145.466 173.978C143 173.978 141.524 175.31 141.524 176.966C141.524 180.62 147.158 179.486 147.158 181.268C147.158 181.844 146.618 182.294 145.628 182.294C144.62 182.294 143.918 181.718 143.828 180.962H141.29C141.398 182.816 143.144 184.274 145.646 184.274C148.076 184.274 149.57 182.978 149.57 181.268Z" fill="#FF1616"/>
<path d="M151.639 184.112H154.159V174.14H151.639V184.112ZM152.917 172.952C153.799 172.952 154.465 172.304 154.465 171.476C154.465 170.648 153.799 170 152.917 170C152.017 170 151.369 170.648 151.369 171.476C151.369 172.304 152.017 172.952 152.917 172.952Z" fill="#FF1616"/>
<path d="M166.278 179.126C166.278 175.976 164.028 173.978 161.148 173.978C158.268 173.978 156.018 175.976 156.018 179.126C156.018 182.258 158.196 184.274 161.076 184.274C163.974 184.274 166.278 182.258 166.278 179.126ZM158.574 179.126C158.574 177.128 159.78 176.174 161.112 176.174C162.444 176.174 163.686 177.128 163.686 179.126C163.686 181.106 162.408 182.078 161.076 182.078C159.726 182.078 158.574 181.106 158.574 179.126Z" fill="#FF1616"/>
<path d="M175.111 184.112H177.631V178.262C177.631 175.508 175.975 173.996 173.653 173.996C172.375 173.996 171.295 174.536 170.647 175.382V174.14H168.127V184.112H170.647V178.604C170.647 177.002 171.529 176.138 172.897 176.138C174.229 176.138 175.111 177.002 175.111 178.604V184.112Z" fill="#FF1616"/>
<path d="M179.379 179.09C179.379 182.204 181.395 184.274 183.915 184.274C185.499 184.274 186.633 183.518 187.227 182.654V184.112H189.765V174.14H187.227V175.562C186.633 174.734 185.535 173.978 183.933 173.978C181.395 173.978 179.379 175.976 179.379 179.09ZM187.227 179.126C187.227 181.016 185.967 182.06 184.581 182.06C183.231 182.06 181.953 180.98 181.953 179.09C181.953 177.2 183.231 176.192 184.581 176.192C185.967 176.192 187.227 177.236 187.227 179.126Z" fill="#FF1616"/>
<path d="M192.227 184.112H194.747V170.792H192.227V184.112Z" fill="#FF1616"/>
<path d="M197.236 184.112H199.756V174.14H197.236V184.112ZM198.514 172.952C199.396 172.952 200.062 172.304 200.062 171.476C200.062 170.648 199.396 170 198.514 170C197.614 170 196.966 170.648 196.966 171.476C196.966 172.304 197.614 172.952 198.514 172.952Z" fill="#FF1616"/>
<path d="M209.986 181.268C209.914 177.614 204.388 178.748 204.388 176.93C204.388 176.354 204.874 175.976 205.81 175.976C206.8 175.976 207.412 176.498 207.484 177.272H209.896C209.752 175.292 208.294 173.978 205.882 173.978C203.416 173.978 201.94 175.31 201.94 176.966C201.94 180.62 207.574 179.486 207.574 181.268C207.574 181.844 207.034 182.294 206.044 182.294C205.036 182.294 204.334 181.718 204.244 180.962H201.706C201.814 182.816 203.56 184.274 206.062 184.274C208.492 184.274 209.986 182.978 209.986 181.268Z" fill="#FF1616"/>
<path d="M226.005 184.112H228.525V178.262C228.525 175.508 226.833 173.996 224.439 173.996C222.981 173.996 221.667 174.77 221.019 175.904C220.335 174.662 219.057 173.996 217.509 173.996C216.267 173.996 215.205 174.518 214.575 175.346V174.14H212.055V184.112H214.575V178.604C214.575 177.02 215.457 176.192 216.825 176.192C218.157 176.192 219.039 177.02 219.039 178.604V184.112H221.559V178.604C221.559 177.02 222.441 176.192 223.791 176.192C225.123 176.192 226.005 177.02 226.005 178.604V184.112Z" fill="#FF1616"/>
<defs>
<filter id="filter0_d_13_2095" x="0" y="0" width="320" height="290" filterUnits="userSpaceOnUse" color-interpolation-filters="sRGB">
<feFlood flood-opacity="0" result="BackgroundImageFix"/>
<feColorMatrix in="SourceAlpha" type="matrix" values="0 0 0 0 0 0 0 0 0 0 0 0 0 0 0 0 0 0 127 0" result="hardAlpha"/>
<feOffset dx="4" dy="4"/>
<feGaussianBlur stdDeviation="10"/>
<feComposite in2="hardAlpha" operator="out"/>
<feColorMatrix type="matrix" values="0 0 0 0 0 0 0 0 0 0 0 0 0 0 0 0 0 0 0.1 0"/>
<feBlend mode="normal" in2="BackgroundImageFix" result="effect1_dropShadow_13_2095"/>
<feBlend mode="normal" in="SourceGraphic" in2="effect1_dropShadow_13_2095" result="shape"/>
</filter>
</defs>
</svg>
