<svg width="320" height="290" viewBox="0 0 320 290" fill="none" xmlns="http://www.w3.org/2000/svg">
<g filter="url(#filter0_d_13_2102)">
<path d="M16 26C16 20.4772 20.4772 16 26 16H286C291.523 16 296 20.4772 296 26V256C296 261.523 291.523 266 286 266H26C20.4771 266 16 261.523 16 256V26Z" fill="white"/>
</g>
<path d="M116.306 184.989H118.97L114.452 172.407H111.518L107 184.989H109.646L110.474 182.595H115.478L116.306 184.989ZM114.794 180.579H111.158L112.976 175.323L114.794 180.579Z" fill="#FF1616"/>
<path d="M120.929 184.989H123.485V177.087H125.231V175.017H123.485V174.603C123.485 173.487 123.899 173.091 125.123 173.127V171.003C122.315 170.931 120.929 172.065 120.929 174.513V175.017H119.795V177.087H120.929V184.989Z" fill="#FF1616"/>
<path d="M127.134 184.989H129.69V177.087H131.436V175.017H129.69V174.603C129.69 173.487 130.104 173.091 131.328 173.127V171.003C128.52 170.931 127.134 172.065 127.134 174.513V175.017H126V177.087H127.134V184.989Z" fill="#FF1616"/>
<path d="M142.699 180.003C142.699 176.853 140.449 174.855 137.569 174.855C134.689 174.855 132.439 176.853 132.439 180.003C132.439 183.135 134.617 185.151 137.497 185.151C140.395 185.151 142.699 183.135 142.699 180.003ZM134.995 180.003C134.995 178.005 136.201 177.051 137.533 177.051C138.865 177.051 140.107 178.005 140.107 180.003C140.107 181.983 138.829 182.955 137.497 182.955C136.147 182.955 134.995 181.983 134.995 180.003Z" fill="#FF1616"/>
<path d="M147.067 180.021C147.067 178.095 147.967 177.519 149.461 177.519H150.127V174.873C148.741 174.873 147.697 175.539 147.067 176.565V175.017H144.547V184.989H147.067V180.021Z" fill="#FF1616"/>
<path d="M151.177 179.967C151.177 183.081 153.193 185.151 155.731 185.151C157.297 185.151 158.413 184.431 159.007 183.513V184.989H161.563V171.669H159.007V176.403C158.323 175.467 157.063 174.855 155.749 174.855C153.193 174.855 151.177 176.853 151.177 179.967ZM159.025 180.003C159.025 181.893 157.765 182.937 156.379 182.937C155.029 182.937 153.751 181.857 153.751 179.967C153.751 178.077 155.029 177.069 156.379 177.069C157.765 177.069 159.025 178.113 159.025 180.003Z" fill="#FF1616"/>
<path d="M163.376 179.967C163.376 183.081 165.392 185.151 167.912 185.151C169.496 185.151 170.63 184.395 171.224 183.531V184.989H173.762V175.017H171.224V176.439C170.63 175.611 169.532 174.855 167.93 174.855C165.392 174.855 163.376 176.853 163.376 179.967ZM171.224 180.003C171.224 181.893 169.964 182.937 168.578 182.937C167.228 182.937 165.95 181.857 165.95 179.967C165.95 178.077 167.228 177.069 168.578 177.069C169.964 177.069 171.224 178.113 171.224 180.003Z" fill="#FF1616"/>
<path d="M178.743 176.475V171.669H176.223V184.989H178.743V183.567C179.355 184.431 180.471 185.151 182.037 185.151C184.593 185.151 186.591 183.081 186.591 179.967C186.591 176.853 184.593 174.855 182.037 174.855C180.525 174.855 179.355 175.557 178.743 176.475ZM184.017 179.967C184.017 181.857 182.739 182.937 181.371 182.937C180.021 182.937 178.743 181.893 178.743 180.003C178.743 178.113 180.021 177.069 181.371 177.069C182.739 177.069 184.017 178.077 184.017 179.967Z" fill="#FF1616"/>
<path d="M188.422 184.989H190.942V171.669H188.422V184.989Z" fill="#FF1616"/>
<path d="M197.716 176.925C199.012 176.925 200.056 177.753 200.092 179.067H195.358C195.556 177.699 196.51 176.925 197.716 176.925ZM202.45 181.857H199.732C199.408 182.523 198.814 183.063 197.734 183.063C196.474 183.063 195.466 182.235 195.34 180.759H202.63C202.684 180.435 202.702 180.111 202.702 179.787C202.702 176.817 200.668 174.855 197.788 174.855C194.836 174.855 192.784 176.853 192.784 180.003C192.784 183.135 194.89 185.151 197.788 185.151C200.254 185.151 201.91 183.693 202.45 181.857Z" fill="#FF1616"/>
<defs>
<filter id="filter0_d_13_2102" x="0" y="0" width="320" height="290" filterUnits="userSpaceOnUse" color-interpolation-filters="sRGB">
<feFlood flood-opacity="0" result="BackgroundImageFix"/>
<feColorMatrix in="SourceAlpha" type="matrix" values="0 0 0 0 0 0 0 0 0 0 0 0 0 0 0 0 0 0 127 0" result="hardAlpha"/>
<feOffset dx="4" dy="4"/>
<feGaussianBlur stdDeviation="10"/>
<feComposite in2="hardAlpha" operator="out"/>
<feColorMatrix type="matrix" values="0 0 0 0 0 0 0 0 0 0 0 0 0 0 0 0 0 0 0.1 0"/>
<feBlend mode="normal" in2="BackgroundImageFix" result="effect1_dropShadow_13_2102"/>
<feBlend mode="normal" in="SourceGraphic" in2="effect1_dropShadow_13_2102" result="shape"/>
</filter>
</defs>
</svg>
