<svg width="122" height="122" viewBox="0 0 122 122" fill="none" xmlns="http://www.w3.org/2000/svg">
<g filter="url(#filter0_d_13_1610)">
<circle cx="59" cy="59" r="50" fill="#C70808E6"/>
<circle cx="59" cy="59" r="52.5" stroke="white" stroke-width="5"/>
</g>
<g filter="url(#filter1_d_13_1610)">
<path d="M40.392 81.9998C40.392 83.3495 41.4303 84.5105 42.7819 84.5747C44.224 84.6445 45.4133 83.4949 45.4133 82.0697C45.4133 81.9413 45.4133 81.7601 45.4133 81.5355L40.392 70.332V81.9998Z" fill="white"/>
<path d="M72.6754 81.9998C72.6754 83.3495 73.7136 84.5105 75.0652 84.5747C76.5074 84.6445 77.6967 83.4949 77.6967 82.0697V70.332L72.6754 81.5355V81.9998Z" fill="white"/>
<path d="M74.027 73.5297L71.2766 74.0262C71.0161 74.0715 70.7556 73.9375 70.6405 73.6959L70.2006 72.7615C70.0666 72.4764 70.1799 72.1385 70.4611 71.9932L73.3682 70.4792C73.7268 70.2923 74.1629 70.5151 74.2195 70.9153L74.5008 72.8709C74.548 73.1824 74.3347 73.4731 74.027 73.5297ZM64.1751 77.1315C50.9744 77.1315 53.8645 77.1334 53.689 77.1239C49.9022 76.9333 48.7432 72.2235 50.142 72.2235H67.9467C69.438 72.2235 68.0977 77.1315 64.1751 77.1315ZM47.8881 72.7615L47.4501 73.6959C47.335 73.9375 47.0745 74.0715 46.814 74.0262L44.0636 73.5297C43.754 73.4731 43.5426 73.1824 43.5879 72.8709L43.8692 70.9153C43.9277 70.5151 44.3637 70.2923 44.7205 70.4792L47.6276 71.9932C47.9069 72.1385 48.0221 72.4764 47.8881 72.7615ZM77.4135 69.6845H72.6754C72.0128 69.6845 41.4756 69.6845 40.9621 69.6845H40.6771L40.7073 69.7449C41.4095 71.3155 44.7243 78.7096 45.772 81.0465C45.8739 81.2768 46.1023 81.4222 46.3553 81.4222H71.7334C71.9883 81.4222 72.2148 81.2768 72.3186 81.0465C73.3663 78.7039 76.683 71.306 77.3814 69.7449L77.4135 69.6845Z" fill="white"/>
<path d="M73.6117 67.2267H44.4751L44.2108 66.4188H73.8778L73.6117 67.2267ZM76.5735 64.1196C75.9977 64.0762 75.5107 64.5066 75.5107 65.0427V66.1715C74.8613 66.3641 74.3441 66.3187 74.0949 66.2772L72.5753 62.7604C71.9486 61.3145 70.6367 60.3064 69.1152 60.0459C66.5441 62.6359 63.2728 64.5632 59.5408 65.5089L59.0538 65.6316L58.5686 65.5089C54.8291 64.5632 51.5502 62.6359 48.9791 60.0459C47.4558 60.3027 46.1419 61.3145 45.5133 62.7604L43.9937 66.2772C43.7446 66.3187 43.2273 66.3641 42.5799 66.1715V65.0427C42.5799 64.5066 42.0909 64.0762 41.5152 64.1196C37.9059 64.3725 37.3868 66.7397 38.5647 66.7397C38.5496 66.7397 40.2561 66.7397 41.2679 66.7397C42.1193 67.223 42.9008 67.357 43.4822 67.3626C43.1009 67.4627 42.7328 67.6231 42.3968 67.8402L41.9796 68.1102C41.5039 68.4198 41.721 69.1578 42.2873 69.1578H75.7976C76.3677 69.1578 76.5848 68.4198 76.111 68.1102L75.6919 67.8402C75.3559 67.6231 74.9897 67.4627 74.6084 67.3626C75.1898 67.357 75.9713 67.223 76.8226 66.7397C77.8345 66.7397 79.539 66.7397 79.5239 66.7397C80.7019 66.7397 80.1865 64.3725 76.5735 64.1196Z" fill="white"/>
<path d="M56.5884 74.6775C56.5884 76.0328 57.6871 77.1315 59.0443 77.1315C60.4016 77.1315 61.5021 76.0328 61.5021 74.6775C61.5021 73.3202 60.4016 72.2235 59.0443 72.2235C57.6871 72.2235 56.5884 73.3202 56.5884 74.6775Z" fill="white"/>
<path d="M53.3963 48.4234L58.7876 51.1681L66.9896 43.1794C67.269 42.9038 67.6956 43.27 67.471 43.589L58.8933 55.5079L53.0131 48.9161C52.781 48.6575 53.0811 48.2611 53.3963 48.4234ZM51.8692 59.9761C53.94 61.6618 56.3789 62.9152 59.0538 63.5891C61.723 62.9152 64.1581 61.6618 66.227 59.9761C70.4252 56.5613 73.1114 51.3493 73.1114 45.5126C73.1114 43.842 72.8962 42.2487 72.4847 40.7046C67.2048 40.7046 62.446 38.5168 59.0538 35C55.6616 38.5168 50.8838 40.7046 45.6058 40.7046C45.1924 42.2487 44.9772 43.842 44.9772 45.5126C44.9772 51.3493 47.6615 56.5613 51.8692 59.9761Z" fill="white"/>
</g>
<defs>
<filter id="filter0_d_13_1610" x="0" y="0" width="122" height="122" filterUnits="userSpaceOnUse" color-interpolation-filters="sRGB">
<feFlood flood-opacity="0" result="BackgroundImageFix"/>
<feColorMatrix in="SourceAlpha" type="matrix" values="0 0 0 0 0 0 0 0 0 0 0 0 0 0 0 0 0 0 127 0" result="hardAlpha"/>
<feOffset dx="2" dy="2"/>
<feGaussianBlur stdDeviation="3"/>
<feComposite in2="hardAlpha" operator="out"/>
<feColorMatrix type="matrix" values="0 0 0 0 0 0 0 0 0 0 0 0 0 0 0 0 0 0 0.15 0"/>
<feBlend mode="normal" in2="BackgroundImageFix" result="effect1_dropShadow_13_1610"/>
<feBlend mode="normal" in="SourceGraphic" in2="effect1_dropShadow_13_1610" result="shape"/>
</filter>
<filter id="filter1_d_13_1610" x="34" y="35" width="50.0894" height="57.5777" filterUnits="userSpaceOnUse" color-interpolation-filters="sRGB">
<feFlood flood-opacity="0" result="BackgroundImageFix"/>
<feColorMatrix in="SourceAlpha" type="matrix" values="0 0 0 0 0 0 0 0 0 0 0 0 0 0 0 0 0 0 127 0" result="hardAlpha"/>
<feOffset dy="4"/>
<feGaussianBlur stdDeviation="2"/>
<feComposite in2="hardAlpha" operator="out"/>
<feColorMatrix type="matrix" values="0 0 0 0 0 0 0 0 0 0 0 0 0 0 0 0 0 0 0.25 0"/>
<feBlend mode="normal" in2="BackgroundImageFix" result="effect1_dropShadow_13_1610"/>
<feBlend mode="normal" in="SourceGraphic" in2="effect1_dropShadow_13_1610" result="shape"/>
</filter>
</defs>
</svg>
