<svg width="97" height="97" viewBox="0 0 97 97" fill="none" xmlns="http://www.w3.org/2000/svg">
<g clip-path="url(#clip0_13_2119)">
<path d="M48.6486 64.2079C50.8365 64.2079 52.6102 62.4342 52.6102 60.2463C52.6102 58.0583 50.8365 56.2847 48.6486 56.2847C46.4606 56.2847 44.687 58.0583 44.687 60.2463C44.687 62.4342 46.4606 64.2079 48.6486 64.2079Z" fill="#FF1616"/>
<path d="M34.6641 68.2884C35.0008 68.8629 35.5951 69.1798 36.2289 69.1798C36.526 69.1798 36.843 69.1006 37.1203 68.9421L44.4691 64.7032C45.5585 65.7134 47.0243 66.3473 48.6288 66.3473C50.2332 66.3473 51.699 65.7134 52.7884 64.7032L60.1372 68.9421C60.4145 69.1006 60.7315 69.1798 61.0286 69.1798C61.6426 69.1798 62.2567 68.8629 62.5934 68.2884C63.0886 67.4367 62.7915 66.3274 61.9398 65.8322L54.591 61.5933C54.69 61.1575 54.7494 60.702 54.7494 60.2266C54.7494 57.4732 52.9271 55.1359 50.4115 54.3634V45.8855C50.4115 44.8951 49.5993 44.083 48.6089 44.083C47.6185 44.083 46.8064 44.8951 46.8064 45.8855V54.3634C44.2908 55.1359 42.4684 57.4732 42.4684 60.2266C42.4684 60.702 42.5279 61.1575 42.6269 61.5933L35.2781 65.8322C34.466 66.3274 34.1689 67.4367 34.6641 68.2884ZM48.6486 57.6911C50.0549 57.6911 51.184 58.8202 51.184 60.2266C51.184 61.6329 50.0549 62.762 48.6486 62.762C47.2422 62.762 46.1131 61.6329 46.1131 60.2266C46.1131 58.8202 47.2422 57.6911 48.6486 57.6911Z" fill="#C70808E6"/>
<path d="M31.2175 46.5391C32.2079 46.5391 33.02 45.727 33.02 44.7366V39.8638C33.02 39.3686 33.2379 38.913 33.6143 38.5961C37.873 35.0901 42.4883 32.7725 43.3598 32.3367C44.0729 31.9802 44.5483 31.2473 44.5483 30.4352V23.5816C44.5483 22.9873 44.2512 22.4129 43.756 22.096C43.3598 21.8385 43.1221 21.4027 43.1221 20.9273V13.836C43.1221 11.3006 45.1821 9.24056 47.7176 9.24056H49.2428C51.7782 9.24056 53.8383 11.3006 53.8383 13.836V20.9273C53.8383 21.4027 53.6006 21.8385 53.2044 22.096C52.7092 22.4327 52.4121 22.9873 52.4121 23.5816V30.4352C52.4121 31.2473 52.8875 31.9802 53.6006 32.3367C54.4919 32.7725 59.1072 35.0901 63.3461 38.5961C63.7225 38.913 63.9404 39.3686 63.9404 39.8638V44.7366C63.9404 45.727 64.7525 46.5391 65.7429 46.5391C66.7333 46.5391 67.5454 45.727 67.5454 44.7366V39.8638C67.5454 38.2792 66.8521 36.8134 65.6439 35.823C61.8803 32.7131 57.8395 30.4748 56.0171 29.524V24.4135C56.9283 23.4825 57.4433 22.2346 57.4433 20.9075V13.836C57.4433 9.31979 53.759 5.6355 49.2428 5.6355H47.7176C43.2013 5.6355 39.517 9.29999 39.517 13.836V20.9273C39.517 22.2544 40.0321 23.5024 40.9432 24.4333V29.5438C39.1209 30.4946 35.0999 32.7329 31.3165 35.8428C30.1082 36.8332 29.4149 38.3188 29.4149 39.8836V44.7564C29.4348 45.7468 30.2271 46.5391 31.2175 46.5391Z" fill="#C70808E6"/>
<path d="M70.3978 74.3497C68.5755 75.3005 64.5544 77.5388 60.7711 80.6487C59.5628 81.6391 58.8695 83.1247 58.8695 84.6895V89.5623C58.8695 90.5527 59.6816 91.3648 60.672 91.3648C61.6624 91.3648 62.4746 90.5527 62.4746 89.5623V84.6895C62.4746 84.1943 62.6925 83.7387 63.0688 83.4218C67.3275 79.9158 71.9428 77.5982 72.8144 77.1625C73.5473 76.8059 74.0029 76.073 74.0029 75.2609V68.4073C74.0029 67.8131 73.7057 67.2386 73.2105 66.9217C72.8144 66.6642 72.5767 66.2284 72.5767 65.753V58.6617C72.5767 56.1263 74.6367 54.0663 77.1722 54.0663H78.6974C81.2328 54.0663 83.2928 56.1263 83.2928 58.6617V65.753C83.2928 66.2284 83.0551 66.6642 82.659 66.9217C82.1638 67.2584 81.8667 67.8131 81.8667 68.4073V75.2609C81.8667 76.073 82.3222 76.8059 83.0551 77.1625C83.9465 77.5982 88.5618 79.9158 92.8007 83.4218C93.1771 83.7387 93.3949 84.1943 93.3949 84.6895V89.5623C93.3949 90.5527 94.2071 91.3648 95.1975 91.3648C96.1879 91.3648 97 90.5527 97 89.5623V84.6895C97 83.1049 96.3067 81.6391 95.0984 80.6487C91.3151 77.5388 87.2941 75.3005 85.4717 74.3497V69.2392C86.3829 68.3083 86.8979 67.0604 86.8979 65.7332V58.6419C86.8979 54.1257 83.2136 50.4414 78.6974 50.4414H77.1722C72.6559 50.4414 68.9716 54.1257 68.9716 58.6419V65.7332C68.9716 67.0604 69.4866 68.3083 70.3978 69.2392V74.3497Z" fill="#C70808E6"/>
<path d="M1.80253 91.3448C2.79293 91.3448 3.60506 90.5327 3.60506 89.5423V84.6695C3.60506 84.1743 3.82295 83.7187 4.19931 83.4018C8.45804 79.8958 13.0733 77.5782 13.9449 77.1424C14.6778 76.7859 15.1333 76.053 15.1333 75.2409V68.3873C15.1333 67.793 14.8362 67.2186 14.341 66.9017C13.9449 66.6442 13.7072 66.2084 13.7072 65.733V58.6417C13.7072 56.1063 15.7672 54.0463 18.3026 54.0463H19.8279C22.3633 54.0463 24.4233 56.1063 24.4233 58.6417V65.733C24.4233 66.2084 24.1856 66.6442 23.7895 66.9017C23.2943 67.2384 22.9971 67.793 22.9971 68.3873V75.2409C22.9971 76.053 23.4527 76.7859 24.1856 77.1424C25.077 77.5782 29.6923 79.8958 33.9312 83.4018C34.3075 83.7187 34.5254 84.1743 34.5254 84.6695V89.5423C34.5254 90.5327 35.3376 91.3448 36.328 91.3448C37.3184 91.3448 38.1305 90.5327 38.1305 89.5423V84.6695C38.1305 83.0849 37.4372 81.6191 36.2289 80.6287C32.4456 77.5188 28.4245 75.2805 26.6022 74.3297V69.2192C27.5134 68.2882 28.0284 67.0403 28.0284 65.7132V58.6219C28.0284 54.1057 24.3441 50.4214 19.8279 50.4214H18.3026C13.7864 50.4214 10.1021 54.1057 10.1021 58.6219V65.7132C10.1021 67.0403 10.6171 68.2882 11.5283 69.2192V74.3297C9.70594 75.2805 5.68491 77.5188 1.90157 80.6287C0.693282 81.6191 0 83.1047 0 84.6695V89.5423C0 90.5525 0.81213 91.3448 1.80253 91.3448Z" fill="#C70808E6"/>
</g>
<defs>
<clipPath id="clip0_13_2119">
<rect width="97" height="97" fill="white"/>
</clipPath>
</defs>
</svg>
