<svg width="500" height="500" viewBox="0 0 500 500" fill="none" xmlns="http://www.w3.org/2000/svg">
<path opacity="0.3" d="M254.71 472.07C373.738 472.07 470.23 466.863 470.23 460.44C470.23 454.017 373.738 448.81 254.71 448.81C135.682 448.81 39.19 454.017 39.19 460.44C39.19 466.863 135.682 472.07 254.71 472.07Z" fill="black"/>
<path d="M55.8 307.9C55.8 307.9 52.8 316.12 46.45 317.25C40.1 318.38 28.89 306 36 299.68C43.11 293.36 52.81 303.42 55.8 307.9Z" fill="#FF1616" stroke="#263238" stroke-linecap="round" stroke-linejoin="round"/>
<path d="M65.52 267.53C65.52 267.53 56.17 290.33 59.91 301.53C63.65 312.73 86.82 321 93.55 306.41C100.28 291.82 85.33 271.27 79.72 266.78C74.11 262.29 67.39 263.79 65.52 267.53Z" fill="#FF1616" stroke="#263238" stroke-linecap="round" stroke-linejoin="round"/>
<path d="M120.09 277.25C120.09 277.25 104 291.83 102.15 306.41C100.3 320.99 111.15 326.22 122.33 324.35C133.51 322.48 139.15 294.07 135.79 280.99C132.43 267.91 120.09 277.25 120.09 277.25Z" fill="#FF1616" stroke="#263238" stroke-linecap="round" stroke-linejoin="round"/>
<path d="M123.08 358C123.08 358 105.14 358.75 104.39 367.34C103.64 375.93 112.24 377.81 120.84 370.34C129.44 362.87 130.56 358.36 123.08 358Z" fill="#FF1616" stroke="#263238" stroke-linecap="round" stroke-linejoin="round"/>
<path d="M78.6 375.93C78.6 375.93 76.73 384.93 70 388.27C63.27 391.61 51.31 384.53 57.67 373.69C64.03 362.85 75.24 371.45 78.6 375.93Z" fill="#FF1616" stroke="#263238" stroke-linecap="round" stroke-linejoin="round"/>
<path d="M62.9 347.9C62.9 347.9 59.54 340.42 46.45 345.28C33.36 350.14 28.14 357.62 36.36 360.28C44.58 362.94 62.9 347.9 62.9 347.9Z" fill="#FF1616" stroke="#263238" stroke-linecap="round" stroke-linejoin="round"/>
<path d="M100.28 258.19C100.28 258.19 102.52 263.42 107.01 262.3C111.5 261.18 112.61 254.45 119.72 256.3C126.83 258.15 132.8 266.39 132.8 262.65C132.8 258.91 123.8 249.2 113.74 249.2C103.68 249.2 100.65 253.33 100.28 258.19Z" fill="#FF1616" stroke="#263238" stroke-linecap="round" stroke-linejoin="round"/>
<path d="M81.79 314.65C81.79 314.65 89.61 337.55 91.28 357.09C92.95 376.63 91.28 407.92 91.28 407.92" stroke="#263238" stroke-linecap="round" stroke-linejoin="round"/>
<path d="M109.16 322.47C109.16 322.47 100.22 348.72 97.99 365.47C95.76 382.22 95.19 407.92 95.19 407.92" stroke="#263238" stroke-linecap="round" stroke-linejoin="round"/>
<path d="M104.69 369.38C104.69 369.38 100.78 370.5 98.54 408.48" stroke="#263238" stroke-linecap="round" stroke-linejoin="round"/>
<path d="M78.6 375.93C78.6 375.93 82.35 372.73 84.6 379.99C86.85 387.25 85.72 407.36 85.72 407.36" stroke="#263238" stroke-linecap="round" stroke-linejoin="round"/>
<path d="M88.26 372.33C91.19 388.71 88.49 406.8 88.49 406.8" stroke="#263238" stroke-linecap="round" stroke-linejoin="round"/>
<path d="M62.9 347.9C62.9 347.9 79 344.81 85.7 362.68C86.3646 364.469 86.9255 366.296 87.38 368.15" stroke="#263238" stroke-linecap="round" stroke-linejoin="round"/>
<path d="M130.07 330.58C130.07 330.58 133.44 323.11 146.52 327.97C159.6 332.83 164.84 340.3 156.61 342.92C148.38 345.54 130.07 330.58 130.07 330.58Z" fill="#FF1616" stroke="#263238" stroke-linecap="round" stroke-linejoin="round"/>
<path d="M115.76 333.86C112.53 336.07 109.42 339.64 107.28 345.37C100.57 363.24 101.34 407.37 101.34 407.37" stroke="#263238" stroke-linecap="round" stroke-linejoin="round"/>
<path d="M130.07 330.58C126.288 330.052 122.433 330.578 118.93 332.1" stroke="#263238" stroke-linecap="round" stroke-linejoin="round"/>
<path d="M73.43 319.3C77.6254 324.372 80.8401 330.181 82.91 336.43C91.84 362.12 95.19 395.07 93.52 407.36" stroke="#263238" stroke-linecap="round" stroke-linejoin="round"/>
<path d="M55.8 307.9C55.8 307.9 63.59 309.12 71.48 317.17" stroke="#263238" stroke-linecap="round" stroke-linejoin="round"/>
<path d="M96.12 343.35C95.58 375.77 95.19 407.92 95.19 407.92" stroke="#263238" stroke-linecap="round" stroke-linejoin="round"/>
<path d="M100.28 258.19C100.28 258.19 98.54 256.56 97.43 285.6C96.99 296.89 96.56 317.87 96.19 339.31" stroke="#263238" stroke-linecap="round" stroke-linejoin="round"/>
<path d="M111.29 464.89H78.54C76.8451 464.891 75.2108 464.26 73.9555 463.121C72.7003 461.982 71.914 460.417 71.75 458.73L66.75 406.8H123.16L118.16 458.73C117.995 460.431 117.197 462.008 115.925 463.148C114.653 464.289 112.999 464.911 111.29 464.89V464.89Z" fill="#263238" stroke="#263238" stroke-linecap="round" stroke-linejoin="round"/>
<path d="M345.75 325.13H430.47C432.061 325.13 433.587 325.762 434.713 326.887C435.838 328.013 436.47 329.539 436.47 331.13V402C436.47 403.541 435.858 405.019 434.768 406.108C433.679 407.198 432.201 407.81 430.66 407.81H345.52C343.979 407.81 342.501 407.198 341.412 406.108C340.322 405.019 339.71 403.541 339.71 402V331.17C339.705 330.375 339.857 329.588 340.159 328.852C340.461 328.117 340.905 327.449 341.467 326.887C342.029 326.325 342.697 325.881 343.432 325.579C344.168 325.277 344.955 325.125 345.75 325.13V325.13Z" fill="#263238" stroke="#263238" stroke-miterlimit="10"/>
<path d="M343.28 322.3H428C429.591 322.3 431.117 322.932 432.243 324.057C433.368 325.183 434 326.709 434 328.3V399.11C434 400.651 433.388 402.129 432.298 403.218C431.209 404.308 429.731 404.92 428.19 404.92H343.05C341.509 404.92 340.031 404.308 338.942 403.218C337.852 402.129 337.24 400.651 337.24 399.11V328.34C337.235 327.545 337.387 326.757 337.689 326.022C337.991 325.287 338.435 324.619 338.997 324.057C339.559 323.495 340.227 323.051 340.962 322.749C341.698 322.447 342.485 322.295 343.28 322.3Z" fill="white" stroke="#263238" stroke-miterlimit="10"/>
<path d="M343.28 322.3H428C429.591 322.3 431.117 322.932 432.243 324.057C433.368 325.183 434 326.709 434 328.3V338.87H337.24V328.34C337.235 327.545 337.387 326.757 337.689 326.022C337.991 325.287 338.435 324.619 338.997 324.057C339.559 323.495 340.227 323.051 340.962 322.749C341.698 322.447 342.485 322.295 343.28 322.3Z" fill="white" stroke="#263238" stroke-miterlimit="10"/>
<path d="M343.38 347.36H361.53" stroke="#263238" stroke-miterlimit="10"/>
<path d="M343.38 353.72H361.53" stroke="#263238" stroke-miterlimit="10"/>
<path d="M343.38 360.08H361.53" stroke="#263238" stroke-miterlimit="10"/>
<path d="M343.38 366.43H361.53" stroke="#263238" stroke-miterlimit="10"/>
<path d="M343.38 372.79H361.53" stroke="#263238" stroke-miterlimit="10"/>
<path d="M343.38 379.15H361.53" stroke="#263238" stroke-miterlimit="10"/>
<path d="M343.38 385.51H361.53" stroke="#263238" stroke-miterlimit="10"/>
<path d="M343.38 391.87H361.53" stroke="#263238" stroke-miterlimit="10"/>
<path d="M416.84 347.36H425.69" stroke="#263238" stroke-miterlimit="10"/>
<path d="M416.84 353.72H425.69" stroke="#263238" stroke-miterlimit="10"/>
<path d="M416.84 360.08H425.69" stroke="#263238" stroke-miterlimit="10"/>
<path d="M416.84 366.43H425.69" stroke="#263238" stroke-miterlimit="10"/>
<path d="M416.84 372.79H425.69" stroke="#263238" stroke-miterlimit="10"/>
<path d="M416.84 379.15H425.69" stroke="#263238" stroke-miterlimit="10"/>
<path d="M416.84 385.51H425.69" stroke="#263238" stroke-miterlimit="10"/>
<path d="M416.84 391.87H425.69" stroke="#263238" stroke-miterlimit="10"/>
<path d="M365.51 347.36H413.3" stroke="#263238" stroke-width="2" stroke-miterlimit="10"/>
<path d="M365.51 353.72H392" stroke="#263238" stroke-width="2" stroke-miterlimit="10"/>
<path d="M365.51 360.08H399.16" stroke="#263238" stroke-width="2" stroke-miterlimit="10"/>
<path d="M365.51 366.43H399.95" stroke="#263238" stroke-width="2" stroke-miterlimit="10"/>
<path d="M365.51 372.79H407.51" stroke="#263238" stroke-width="2" stroke-miterlimit="10"/>
<path d="M365.51 379.15H376.09" stroke="#263238" stroke-width="2" stroke-miterlimit="10"/>
<path d="M365.51 385.51H387.23" stroke="#263238" stroke-width="2" stroke-miterlimit="10"/>
<path d="M365.51 391.87H413.3" stroke="#263238" stroke-width="2" stroke-miterlimit="10"/>
<path d="M314 165.25H462.22C463.811 165.25 465.337 165.882 466.463 167.007C467.588 168.133 468.22 169.659 468.22 171.25V282.93C468.22 284.471 467.608 285.949 466.518 287.038C465.429 288.128 463.951 288.74 462.41 288.74H313.77C312.229 288.74 310.751 288.128 309.662 287.038C308.572 285.949 307.96 284.471 307.96 282.93V171.29C307.955 170.495 308.107 169.708 308.409 168.972C308.711 168.237 309.155 167.569 309.717 167.007C310.279 166.445 310.947 166.001 311.682 165.699C312.418 165.397 313.205 165.245 314 165.25V165.25Z" fill="#263238" stroke="#263238" stroke-miterlimit="10"/>
<path d="M311.52 162.43H459.75C461.341 162.43 462.867 163.062 463.993 164.187C465.118 165.313 465.75 166.839 465.75 168.43V280.1C465.75 281.641 465.138 283.119 464.048 284.208C462.959 285.298 461.481 285.91 459.94 285.91H311.3C309.759 285.91 308.281 285.298 307.192 284.208C306.102 283.119 305.49 281.641 305.49 280.1V168.46C305.486 167.667 305.639 166.881 305.941 166.148C306.243 165.414 306.687 164.748 307.247 164.187C307.808 163.627 308.474 163.183 309.208 162.881C309.941 162.579 310.727 162.426 311.52 162.43V162.43Z" fill="white" stroke="#263238" stroke-miterlimit="10"/>
<path d="M311.52 162.43H459.75C461.341 162.43 462.867 163.062 463.993 164.187C465.118 165.313 465.75 166.839 465.75 168.43V179H305.49V168.46C305.486 167.667 305.639 166.881 305.941 166.148C306.243 165.414 306.687 164.748 307.247 164.187C307.808 163.627 308.474 163.183 309.208 162.881C309.941 162.579 310.727 162.426 311.52 162.43V162.43Z" fill="white" stroke="#263238" stroke-miterlimit="10"/>
<path d="M345.15 187.72H315.31V214.76H345.15V187.72Z" fill="white" stroke="#263238" stroke-miterlimit="10"/>
<path d="M345.15 219.54H315.31V246.58H345.15V219.54Z" fill="white" stroke="#263238" stroke-miterlimit="10"/>
<path d="M382.78 187.72H352.94V214.76H382.78V187.72Z" fill="white" stroke="#263238" stroke-miterlimit="10"/>
<path d="M458.47 187.72H428.63V214.76H458.47V187.72Z" fill="white" stroke="#263238" stroke-miterlimit="10"/>
<path d="M420.41 187.72H390.57V214.76H420.41V187.72Z" fill="white" stroke="#263238" stroke-miterlimit="10"/>
<path d="M420.41 219.54H390.57V246.58H420.41V219.54Z" fill="white" stroke="#263238" stroke-miterlimit="10"/>
<path d="M420.41 251.35H390.57V278.39H420.41V251.35Z" fill="white" stroke="#263238" stroke-miterlimit="10"/>
<path d="M345.75 48.7499H430.47C432.061 48.7499 433.587 49.382 434.713 50.5072C435.838 51.6325 436.47 53.1586 436.47 54.7499V125.56C436.47 126.323 436.32 127.078 436.028 127.783C435.736 128.488 435.308 129.129 434.768 129.668C434.229 130.208 433.588 130.636 432.883 130.928C432.179 131.22 431.423 131.37 430.66 131.37H345.52C344.757 131.37 344.002 131.22 343.297 130.928C342.592 130.636 341.951 130.208 341.412 129.668C340.872 129.129 340.444 128.488 340.152 127.783C339.86 127.078 339.71 126.323 339.71 125.56V54.7899C339.705 53.9952 339.857 53.2074 340.159 52.4722C340.461 51.737 340.905 51.069 341.467 50.5071C342.029 49.9452 342.697 49.5005 343.432 49.1988C344.168 48.8972 344.955 48.7446 345.75 48.7499V48.7499Z" fill="#263238" stroke="#263238" stroke-miterlimit="10"/>
<path d="M343.28 45.9299H428C429.591 45.9299 431.117 46.5621 432.243 47.6873C433.368 48.8125 434 50.3386 434 51.9299V122.74C434 124.281 433.388 125.759 432.298 126.848C431.209 127.938 429.731 128.55 428.19 128.55H343.05C341.509 128.55 340.031 127.938 338.942 126.848C337.852 125.759 337.24 124.281 337.24 122.74V51.9999C337.231 51.2028 337.38 50.4117 337.68 49.673C337.98 48.9343 338.424 48.2628 338.986 47.6977C339.549 47.1326 340.218 46.6852 340.955 46.3817C341.693 46.0781 342.483 45.9246 343.28 45.9299V45.9299Z" fill="white" stroke="#263238" stroke-miterlimit="10"/>
<path d="M343.28 45.9299H428C429.591 45.9299 431.117 46.5621 432.243 47.6873C433.368 48.8125 434 50.3386 434 51.9299V62.5299H337.24V51.9999C337.231 51.2028 337.38 50.4117 337.68 49.673C337.98 48.9343 338.424 48.2628 338.986 47.6977C339.549 47.1326 340.218 46.6852 340.955 46.3817C341.693 46.0781 342.483 45.9246 343.28 45.9299V45.9299Z" fill="white" stroke="#263238" stroke-miterlimit="10"/>
<path d="M342.89 72.0699H361.04" stroke="#263238" stroke-miterlimit="10"/>
<path d="M342.89 78.4299H361.04" stroke="#263238" stroke-miterlimit="10"/>
<path d="M342.89 84.7899H361.04" stroke="#263238" stroke-miterlimit="10"/>
<path d="M342.89 91.1399H361.04" stroke="#263238" stroke-miterlimit="10"/>
<path d="M342.89 97.5H361.04" stroke="#263238" stroke-miterlimit="10"/>
<path d="M342.89 103.86H361.04" stroke="#263238" stroke-miterlimit="10"/>
<path d="M342.89 110.22H361.04" stroke="#263238" stroke-miterlimit="10"/>
<path d="M342.89 116.58H361.04" stroke="#263238" stroke-miterlimit="10"/>
<path d="M416.35 72.0699H425.2" stroke="#263238" stroke-miterlimit="10"/>
<path d="M416.35 78.4299H425.2" stroke="#263238" stroke-miterlimit="10"/>
<path d="M416.35 84.7899H425.2" stroke="#263238" stroke-miterlimit="10"/>
<path d="M416.35 91.1399H425.2" stroke="#263238" stroke-miterlimit="10"/>
<path d="M416.35 97.5H425.2" stroke="#263238" stroke-miterlimit="10"/>
<path d="M416.35 103.86H425.2" stroke="#263238" stroke-miterlimit="10"/>
<path d="M416.35 110.22H425.2" stroke="#263238" stroke-miterlimit="10"/>
<path d="M416.35 116.58H425.2" stroke="#263238" stroke-miterlimit="10"/>
<path d="M365.02 72.0699H412.81" stroke="#263238" stroke-miterlimit="10"/>
<path d="M365.02 78.4299H412.81" stroke="#263238" stroke-miterlimit="10"/>
<path d="M365.02 84.7899H412.81" stroke="#263238" stroke-miterlimit="10"/>
<path d="M365.02 91.1399H412.81" stroke="#263238" stroke-miterlimit="10"/>
<path d="M365.02 97.5H412.81" stroke="#263238" stroke-miterlimit="10"/>
<path d="M365.02 103.86H412.81" stroke="#263238" stroke-miterlimit="10"/>
<path d="M365.02 110.22H412.81" stroke="#263238" stroke-miterlimit="10"/>
<path d="M365.02 116.58H412.81" stroke="#263238" stroke-miterlimit="10"/>
<path d="M199.76 425.8C199.76 425.8 197.89 434.2 196.96 435.8C196.03 437.4 189.72 449.56 188.79 452.13C187.86 454.7 189.26 465.66 189.49 466.83C189.722 467.554 190.15 468.199 190.728 468.694C191.305 469.188 192.009 469.512 192.76 469.63C194.62 470.1 197.19 468.23 201.39 463.33C205.59 458.43 207.22 455.16 207.46 451.2C207.7 447.24 208.39 439.53 208.86 437.9C209.33 436.27 210.02 432.53 210.02 432.53L199.76 425.8Z" fill="#263238" stroke="#263238" stroke-miterlimit="10"/>
<path d="M305 425.8C305 425.8 306.87 434.2 307.8 435.8C308.73 437.4 315 449.6 316 452.17C317 454.74 315.53 465.7 315.3 466.87C315.068 467.594 314.64 468.239 314.062 468.734C313.485 469.228 312.781 469.552 312.03 469.67C310.17 470.14 307.6 468.27 303.4 463.37C299.2 458.47 297.57 455.2 297.33 451.24C297.09 447.28 296.4 439.57 295.93 437.94C295.46 436.31 294.77 432.57 294.77 432.57L305 425.8Z" fill="#263238" stroke="#263238" stroke-miterlimit="10"/>
<path d="M292.85 279.48L291.24 262.23L252.92 258.31L214.6 262.23L212.98 279.48L195.38 436.83L201.39 441.93L211.11 439.97L252.92 303L294.44 440.73L305.41 443.86L310.17 438.38L292.85 279.48Z" fill="#263238" stroke="#263238" stroke-miterlimit="10"/>
<path d="M294.86 240.28L294.83 158.66L266.76 149.71L254.96 150.93L243.16 149.71L215.09 158.66L214.71 241.34L207.17 271.6L253.13 292.41L254.96 288.75L256.79 292.41L302.75 271.6L294.86 240.28Z" fill="#FF1616" stroke="#263238" stroke-miterlimit="10"/>
<path d="M230.22 179.84C231.212 182.879 232.357 185.866 233.65 188.79C239.03 201.36 252.11 217.26 252.11 217.26" stroke="#263238" stroke-miterlimit="10"/>
<path d="M236.72 152.88L231.08 162.63L236.47 164.68L229.54 175.45" stroke="#263238" stroke-miterlimit="10"/>
<path d="M261.87 213.07C259.87 215.66 258.58 217.26 258.58 217.26" stroke="#263238" stroke-miterlimit="10"/>
<path d="M274 152.88L279.64 162.63L274.25 164.68L281.18 175.45C281.18 175.45 282.46 176.22 277.08 188.79C274.16 195.6 268.98 203.39 264.84 209.1" stroke="#263238" stroke-miterlimit="10"/>
<path d="M253.58 277.88L254.08 281.77" stroke="#263238" stroke-miterlimit="10"/>
<path d="M252.37 221.36L247.75 231.88L253.16 274.58" stroke="#263238" stroke-miterlimit="10"/>
<path d="M242.16 152.77L246.56 182.26L254.79 211.17L264.56 180.34L270.11 153.54L242.16 152.77Z" fill="white" stroke="#263238" stroke-miterlimit="10"/>
<path d="M255.75 160.81L249.24 168.85L253.64 177.85L249.71 193.34L254.79 211.17L260.97 191.66L257.86 177.47L262.45 169.62L255.75 160.81Z" fill="#263238" stroke="#263238" stroke-miterlimit="10"/>
<path d="M256.13 165.41L245.41 176.71L242.16 152.77L256.13 165.41Z" fill="white" stroke="#263238" stroke-miterlimit="10"/>
<path d="M256.13 165.41L265.7 178.05L270.11 153.54L268.58 152.39L256.13 165.41Z" fill="white" stroke="#263238" stroke-miterlimit="10"/>
<path d="M242.16 146.84V152.77L256.13 165.41L268.58 152.39V146.64L242.16 146.84Z" fill="#263238" stroke="#263238" stroke-miterlimit="10"/>
<path d="M240.43 101.65C240.43 101.65 234.5 108.35 235.07 111.99C235.64 115.63 237.94 139.75 238.9 141.66C239.86 143.57 251 156.41 253.45 156.6C255.9 156.79 258.05 157.17 259 156.22C259.95 155.27 271.83 143.22 271.64 140.32C271.45 137.42 272.64 115.24 272.41 109.32C272.18 103.4 266.09 102.24 266.09 102.24C266.09 102.24 263.79 98.0299 256.71 97.4499C249.63 96.8699 240.43 101.65 240.43 101.65Z" fill="white" stroke="#263238" stroke-miterlimit="10"/>
<path d="M266.09 102.22C266.09 102.22 263.79 98.01 256.71 97.43C249.63 96.85 240.43 101.65 240.43 101.65C240.43 101.65 234.5 108.35 235.07 111.99C235.33 113.6 235.92 119.28 236.59 125.25C240.53 123.53 258.91 115.25 262.83 108.92C262.83 108.92 263.6 119.45 267.05 121.56C268.904 122.772 270.586 124.228 272.05 125.89C272.29 119.26 272.52 112.26 272.43 109.3C272.22 103.37 266.09 102.22 266.09 102.22Z" fill="#263238" stroke="#263238" stroke-miterlimit="10"/>
<path d="M251.54 137.45C251.54 137.45 253.26 139.75 255.54 139.56C257.042 139.357 258.442 138.685 259.54 137.64" stroke="#263238" stroke-miterlimit="10"/>
<path d="M251.92 144.73H259.2" stroke="#263238" stroke-miterlimit="10"/>
<path d="M220.58 147.57L227.24 129.8C227.24 129.8 239.04 117.62 239.65 116.8C240.26 115.98 241.49 115.96 245.32 116.95C249.15 117.94 251.91 118.56 251.68 119.33C251.45 120.1 250.15 120.48 249.23 120.55C248.31 120.62 242.95 121.7 242.95 121.7C242.95 121.7 239.95 129.36 240.04 130.21C240.13 131.06 240.34 136.21 240.34 136.21C243.062 135.021 245.882 134.074 248.77 133.38C251.68 132.92 253.44 134.53 253.14 134.83C252.84 135.13 249.23 136.37 247.01 137.51C244.79 138.65 242.95 140.27 239.35 142.26C237.618 143.249 235.796 144.072 233.91 144.72C233.68 144.87 229.39 153.22 229.39 153.22L220.58 147.57Z" fill="white" stroke="#263238" stroke-miterlimit="10"/>
<path d="M236.74 120.3C236.74 120.3 240.27 118 241.11 118C241.95 118 247.01 118.84 247.93 118.77C248.85 118.7 249.77 118.84 249.15 119.77C248.53 120.7 247.78 120.46 246.01 120.92C244.24 121.38 236.67 121.92 236.36 121.92C235.4 122.204 234.456 122.538 233.53 122.92L236.74 120.3Z" fill="white" stroke="#263238" stroke-miterlimit="10"/>
<path d="M231.46 124.28C231.46 124.28 234.75 121.45 235.9 120.76C237.05 120.07 243.41 120.45 244.71 119.99C246.01 119.53 247.62 119.07 247.62 120.07C247.62 121.07 246.08 122.47 244.02 122.6C242.507 122.631 240.997 122.758 239.5 122.98C239.2 123.13 231.46 124.28 231.46 124.28Z" fill="white" stroke="#263238" stroke-miterlimit="10"/>
<path d="M226.4 142C226.4 142 227.24 131.73 227.24 129.82C227.24 127.91 227.86 125.82 228.39 125.37C228.92 124.92 240.65 122 240.65 122C240.65 122 241.8 122.31 240.8 123.61C239.8 124.91 237.2 125.91 235.06 126.52C233.798 126.88 232.567 127.341 231.38 127.9C231.38 127.9 232.91 135.33 233.14 137.4C233.37 139.47 233.6 141.46 232.84 142.53" fill="white"/>
<path d="M226.4 142C226.4 142 227.24 131.73 227.24 129.82C227.24 127.91 227.86 125.82 228.39 125.37C228.92 124.92 240.65 122 240.65 122C240.65 122 241.8 122.31 240.8 123.61C239.8 124.91 237.2 125.91 235.06 126.52C233.798 126.88 232.567 127.341 231.38 127.9C231.38 127.9 232.91 135.33 233.14 137.4C233.37 139.47 233.6 141.46 232.84 142.53" stroke="#263238" stroke-miterlimit="10"/>
<path d="M220.68 145.45L232.05 151.76L228.13 158.33L217.53 151.39L220.68 145.45Z" fill="white" stroke="#263238" stroke-miterlimit="10"/>
<path d="M217.65 149.49L230.53 158.59L210.2 204.06C210.2 204.06 207.8 210.5 198.58 208.48C190.91 206.8 189.23 201.16 188.73 198.12C188.23 195.08 188.35 192.19 189.48 190.29C190.61 188.39 217.65 149.49 217.65 149.49Z" fill="#FF1616" stroke="#263238" stroke-miterlimit="10"/>
<path d="M289.1 147.57L282.44 129.8C282.44 129.8 270.64 117.62 270.03 116.8C269.42 115.98 268.19 115.96 264.36 116.95C260.53 117.94 257.77 118.56 258 119.33C258.23 120.1 259.53 120.48 260.45 120.55C261.37 120.62 266.73 121.7 266.73 121.7C266.73 121.7 269.73 129.36 269.64 130.21C269.55 131.06 269.34 136.21 269.34 136.21C266.618 135.021 263.798 134.074 260.91 133.38C258 132.92 256.24 134.53 256.54 134.83C256.84 135.13 260.45 136.37 262.67 137.51C264.89 138.65 266.73 140.27 270.33 142.26C272.062 143.249 273.884 144.072 275.77 144.72C276 144.87 280.29 153.22 280.29 153.22L289.1 147.57Z" fill="white" stroke="#263238" stroke-miterlimit="10"/>
<path d="M272.94 120.3C272.94 120.3 269.41 118 268.57 118C267.73 118 262.67 118.84 261.75 118.77C260.83 118.7 259.91 118.84 260.53 119.77C261.15 120.7 261.91 120.46 263.67 120.92C265.43 121.38 273.01 121.92 273.32 121.92C274.28 122.204 275.224 122.538 276.15 122.92L272.94 120.3Z" fill="white" stroke="#263238" stroke-miterlimit="10"/>
<path d="M278.22 124.28C278.22 124.28 274.93 121.45 273.78 120.76C272.63 120.07 266.27 120.45 264.97 119.99C263.67 119.53 262.06 119.07 262.06 120.07C262.06 121.07 263.6 122.47 265.66 122.6C267.173 122.631 268.683 122.758 270.18 122.98C270.49 123.13 278.22 124.28 278.22 124.28Z" fill="white" stroke="#263238" stroke-miterlimit="10"/>
<path d="M283.28 142C283.28 142 282.44 131.73 282.44 129.82C282.44 127.91 281.82 125.82 281.29 125.37C280.76 124.92 269 122 269 122C269 122 267.85 122.31 268.85 123.61C269.85 124.91 272.45 125.91 274.59 126.52C275.852 126.88 277.083 127.341 278.27 127.9C278.27 127.9 276.74 135.33 276.51 137.4C276.28 139.47 276.05 141.46 276.81 142.53" fill="white"/>
<path d="M283.28 142C283.28 142 282.44 131.73 282.44 129.82C282.44 127.91 281.82 125.82 281.29 125.37C280.76 124.92 269 122 269 122C269 122 267.85 122.31 268.85 123.61C269.85 124.91 272.45 125.91 274.59 126.52C275.852 126.88 277.083 127.341 278.27 127.9C278.27 127.9 276.74 135.33 276.51 137.4C276.28 139.47 276.05 141.46 276.81 142.53" stroke="#263238" stroke-miterlimit="10"/>
<path d="M289.36 145.45L278 151.76L281.91 158.33L292.52 151.39L289.36 145.45Z" fill="white" stroke="#263238" stroke-miterlimit="10"/>
<path d="M292.39 149.49L279.51 158.59L299.85 204.06C299.85 204.06 302.25 210.5 311.47 208.48C319.14 206.8 320.81 201.16 321.32 198.12C321.83 195.08 321.7 192.19 320.56 190.29C319.42 188.39 292.39 149.49 292.39 149.49Z" fill="#FF1616" stroke="#263238" stroke-miterlimit="10"/>
<path d="M247.72 121.77L252.42 120.53L253.26 118.8C253.379 118.554 253.565 118.346 253.797 118.201C254.028 118.056 254.297 117.979 254.57 117.98V117.98C254.828 117.981 255.081 118.051 255.303 118.183C255.524 118.315 255.706 118.504 255.83 118.73L256.83 120.53L261.52 121.64L258.13 127.24L254.68 124.44L252.2 126.65L247.72 121.77Z" fill="white" stroke="#263238" stroke-miterlimit="10"/>
<path d="M256 120.72C256 120.449 255.92 120.184 255.769 119.959C255.619 119.734 255.405 119.558 255.154 119.454C254.904 119.351 254.628 119.323 254.363 119.376C254.097 119.429 253.853 119.56 253.661 119.751C253.47 119.943 253.339 120.187 253.286 120.453C253.233 120.718 253.261 120.994 253.364 121.244C253.468 121.495 253.644 121.709 253.869 121.859C254.094 122.01 254.359 122.09 254.63 122.09C254.993 122.09 255.342 121.946 255.599 121.689C255.856 121.432 256 121.083 256 120.72V120.72Z" fill="white" stroke="#263238" stroke-miterlimit="10"/>
<path d="M251.931 133.298C254.756 130.337 254.841 125.832 252.12 123.236C249.399 120.639 244.903 120.935 242.078 123.895C239.252 126.856 239.168 131.361 241.889 133.957C244.61 136.554 249.106 136.259 251.931 133.298Z" fill="white" stroke="#263238" stroke-miterlimit="10"/>
<path d="M252.55 130.13C252.55 128.781 252.15 127.462 251.401 126.341C250.651 125.219 249.586 124.345 248.34 123.829C247.094 123.313 245.722 123.178 244.399 123.441C243.077 123.704 241.861 124.354 240.908 125.307C239.954 126.261 239.304 127.476 239.041 128.799C238.778 130.122 238.913 131.494 239.429 132.74C239.945 133.986 240.819 135.051 241.941 135.801C243.063 136.55 244.381 136.95 245.73 136.95C246.626 136.951 247.513 136.776 248.341 136.433C249.17 136.091 249.922 135.589 250.555 134.955C251.189 134.322 251.691 133.569 252.034 132.741C252.376 131.913 252.551 131.026 252.55 130.13V130.13Z" fill="white" stroke="#263238" stroke-miterlimit="10"/>
<path d="M251.45 130.13C251.45 128.999 251.115 127.893 250.486 126.952C249.857 126.011 248.964 125.278 247.919 124.845C246.874 124.412 245.724 124.299 244.614 124.52C243.505 124.741 242.485 125.285 241.685 126.085C240.885 126.885 240.341 127.904 240.12 129.014C239.899 130.124 240.012 131.274 240.445 132.319C240.878 133.364 241.611 134.257 242.552 134.886C243.493 135.514 244.599 135.85 245.73 135.85C247.247 135.85 248.702 135.247 249.775 134.175C250.847 133.102 251.45 131.647 251.45 130.13V130.13Z" fill="white" stroke="#263238" stroke-width="0.5" stroke-miterlimit="10"/>
<path d="M257.92 133.29C255.1 130.29 255.01 125.81 257.74 123.22C260.47 120.63 264.96 120.91 267.79 123.88C270.62 126.85 270.7 131.35 267.97 133.94C265.24 136.53 260.75 136.25 257.92 133.29Z" fill="white" stroke="#263238" stroke-miterlimit="10"/>
<path d="M257.31 130.13C257.31 128.781 257.71 127.462 258.46 126.34C259.21 125.218 260.276 124.344 261.522 123.828C262.769 123.312 264.141 123.178 265.464 123.442C266.787 123.706 268.003 124.356 268.956 125.311C269.909 126.266 270.558 127.482 270.82 128.806C271.082 130.129 270.946 131.501 270.428 132.747C269.91 133.993 269.035 135.057 267.912 135.805C266.789 136.554 265.469 136.952 264.12 136.95C263.225 136.95 262.339 136.773 261.512 136.431C260.685 136.088 259.934 135.585 259.301 134.952C258.669 134.318 258.167 133.566 257.826 132.739C257.484 131.912 257.309 131.025 257.31 130.13V130.13Z" fill="white" stroke="#263238" stroke-miterlimit="10"/>
<path d="M258.4 130.13C258.4 128.999 258.735 127.893 259.364 126.952C259.993 126.011 260.886 125.278 261.931 124.845C262.976 124.412 264.126 124.299 265.236 124.52C266.346 124.741 267.365 125.285 268.165 126.085C268.965 126.885 269.509 127.904 269.73 129.014C269.951 130.124 269.838 131.274 269.405 132.319C268.972 133.364 268.239 134.257 267.298 134.886C266.357 135.514 265.251 135.85 264.12 135.85C263.369 135.85 262.625 135.702 261.931 135.415C261.237 135.127 260.606 134.706 260.075 134.175C259.544 133.643 259.123 133.013 258.835 132.319C258.548 131.625 258.4 130.881 258.4 130.13V130.13Z" fill="white" stroke="#263238" stroke-width="0.5" stroke-miterlimit="10"/>
</svg>
